<?xml version="1.0" encoding="UTF-8" standalone="no"?><!DOCTYPE svg PUBLIC "-//W3C//DTD SVG 1.1//EN" "http://www.w3.org/Graphics/SVG/1.1/DTD/svg11.dtd"><svg width="100%" height="100%" viewBox="0 0 568 168" version="1.1" xmlns="http://www.w3.org/2000/svg" xmlns:xlink="http://www.w3.org/1999/xlink" xml:space="preserve" xmlns:serif="http://www.serif.com/" style="fill-rule:evenodd;clip-rule:evenodd;stroke-linejoin:round;stroke-miterlimit:2;"><rect id="logo" x="0" y="0" width="568" height="168" style="fill:none;"/><clipPath id="_clip1"><rect x="0" y="0" width="568" height="168"/></clipPath><g clip-path="url(#_clip1)"><g><g><g><path d="M426.713,34.142l-34.926,34.926c-3.902,3.902 -10.239,3.902 -14.142,-0c-3.902,-3.903 -3.902,-10.24 0,-14.142l34.926,-34.926l-21.139,0c-5.52,-0 -10,-4.481 -10,-10c-0,-5.519 4.48,-10 10,-10l45.281,0c5.523,-0 10,4.477 10,10l-0,45.281c-0,5.519 -4.481,10 -10,10c-5.519,0 -10,-4.481 -10,-10l-0,-21.139Z" style="fill:#699e99;"/></g><g><path d="M32.388,136.913c-6.822,0 -12.587,-1.19 -17.296,-3.57c-4.708,-2.38 -8.32,-5.791 -10.835,-10.235c-2.515,-4.443 -3.897,-9.778 -4.147,-16.005c-0.073,-3.007 -0.11,-6.233 -0.11,-9.68c0,-3.447 0.037,-6.747 0.11,-9.9c0.25,-6.167 1.647,-11.483 4.192,-15.948c2.545,-4.465 6.179,-7.892 10.902,-10.28c4.723,-2.388 10.451,-3.582 17.184,-3.582c4.998,0 9.472,0.652 13.422,1.954c3.95,1.303 7.325,3.124 10.127,5.463c2.801,2.338 4.964,5.046 6.488,8.124c1.524,3.078 2.344,6.413 2.461,10.007c0.044,0.66 -0.173,1.206 -0.649,1.639c-0.477,0.433 -1.045,0.65 -1.705,0.65l-10.423,0c-0.825,0 -1.48,-0.195 -1.964,-0.584c-0.485,-0.39 -0.86,-1.084 -1.126,-2.083c-1.155,-4.829 -3.159,-8.126 -6.011,-9.89c-2.852,-1.765 -6.407,-2.647 -10.665,-2.647c-4.945,-0 -8.873,1.382 -11.783,4.146c-2.911,2.763 -4.483,7.291 -4.717,13.581c-0.22,6.013 -0.22,12.173 0,18.48c0.234,6.291 1.806,10.818 4.717,13.582c2.91,2.763 6.838,4.145 11.783,4.145c4.258,0 7.821,-0.897 10.688,-2.691c2.867,-1.795 4.863,-5.076 5.988,-9.845c0.236,-1.029 0.604,-1.731 1.103,-2.106c0.5,-0.374 1.162,-0.562 1.987,-0.562l10.423,0c0.66,0 1.228,0.217 1.705,0.65c0.476,0.433 0.693,0.98 0.649,1.64c-0.117,3.593 -0.937,6.928 -2.461,10.006c-1.524,3.078 -3.687,5.786 -6.488,8.125c-2.802,2.338 -6.177,4.159 -10.127,5.462c-3.95,1.303 -8.424,1.954 -13.422,1.954Z" style="fill:#114d47;fill-rule:nonzero;"/><path d="M73.865,135.813c-0.763,0 -1.394,-0.25 -1.894,-0.749c-0.5,-0.5 -0.749,-1.131 -0.749,-1.894l-0,-51.848c-0,-0.763 0.249,-1.405 0.749,-1.927c0.5,-0.521 1.131,-0.782 1.894,-0.782l8.865,0c0.763,0 1.406,0.261 1.927,0.782c0.521,0.522 0.782,1.164 0.782,1.927l0,4.568c1.737,-2.358 3.934,-4.16 6.591,-5.407c2.658,-1.247 5.745,-1.87 9.263,-1.87l4.561,0c0.763,0 1.395,0.25 1.894,0.75c0.5,0.499 0.75,1.13 0.75,1.894l-0,7.885c-0,0.763 -0.25,1.395 -0.75,1.894c-0.499,0.5 -1.131,0.75 -1.894,0.75l-8.573,-0c-3.506,-0 -6.245,0.985 -8.215,2.956c-1.971,1.971 -2.957,4.709 -2.957,8.216l0,30.212c0,0.763 -0.26,1.394 -0.782,1.894c-0.521,0.499 -1.163,0.749 -1.926,0.749l-9.536,0Z" style="fill:#114d47;fill-rule:nonzero;"/><path d="M127.28,136.913c-3.788,0 -7.219,-0.748 -10.293,-2.245c-3.075,-1.496 -5.521,-3.51 -7.339,-6.041c-1.819,-2.531 -2.728,-5.381 -2.728,-8.551c0,-5.135 2.084,-9.214 6.251,-12.236c4.167,-3.021 9.657,-5.046 16.467,-6.075l15.057,-2.197l-0,-2.33c-0,-3.083 -0.775,-5.467 -2.324,-7.152c-1.549,-1.686 -4.182,-2.528 -7.899,-2.528c-2.682,-0 -4.846,0.528 -6.492,1.584c-1.647,1.057 -2.88,2.452 -3.701,4.187c-0.545,0.981 -1.376,1.471 -2.492,1.471l-8.642,0c-0.82,0 -1.436,-0.231 -1.847,-0.692c-0.412,-0.462 -0.602,-1.038 -0.573,-1.728c0.03,-1.175 0.497,-2.6 1.401,-4.274c0.904,-1.674 2.304,-3.315 4.201,-4.923c1.896,-1.607 4.344,-2.954 7.342,-4.04c2.999,-1.087 6.629,-1.63 10.892,-1.63c4.595,0 8.483,0.564 11.663,1.693c3.181,1.129 5.731,2.658 7.651,4.587c1.919,1.93 3.32,4.173 4.204,6.729c0.883,2.557 1.325,5.248 1.325,8.073l-0,34.575c-0,0.763 -0.25,1.394 -0.75,1.894c-0.499,0.499 -1.131,0.749 -1.894,0.749l-8.93,0c-0.763,0 -1.395,-0.25 -1.894,-0.749c-0.5,-0.5 -0.75,-1.131 -0.75,-1.894l0,-4.321c-0.939,1.379 -2.208,2.677 -3.807,3.893c-1.598,1.215 -3.551,2.215 -5.857,2.997c-2.307,0.783 -5.054,1.174 -8.242,1.174Zm3.737,-10.402c2.599,0 4.941,-0.554 7.028,-1.663c2.086,-1.11 3.739,-2.828 4.957,-5.157c1.218,-2.328 1.827,-5.251 1.827,-8.769l-0,-2.265l-11.062,1.756c-4.345,0.658 -7.566,1.724 -9.663,3.197c-2.097,1.474 -3.145,3.267 -3.145,5.38c-0,1.645 0.48,3.022 1.442,4.13c0.961,1.108 2.211,1.95 3.748,2.527c1.538,0.576 3.161,0.864 4.868,0.864Z" style="fill:#114d47;fill-rule:nonzero;"/><path d="M192.73,136.913c-5.312,0 -9.958,-0.993 -13.939,-2.98c-3.98,-1.987 -7.092,-4.872 -9.334,-8.656c-2.243,-3.783 -3.467,-8.323 -3.673,-13.619c-0.074,-1.13 -0.11,-2.597 -0.11,-4.4c-0,-1.804 0.036,-3.285 0.11,-4.445c0.206,-5.339 1.423,-9.898 3.65,-13.674c2.228,-3.777 5.339,-6.659 9.335,-8.646c3.995,-1.986 8.649,-2.98 13.961,-2.98c4.662,0 8.657,0.651 11.987,1.953c3.33,1.301 6.053,2.948 8.169,4.939c2.116,1.992 3.703,4.074 4.761,6.246c1.058,2.173 1.623,4.145 1.696,5.916c0.074,0.763 -0.169,1.395 -0.727,1.894c-0.558,0.5 -1.196,0.75 -1.916,0.75l-9.628,-0c-0.764,-0 -1.34,-0.18 -1.729,-0.54c-0.39,-0.36 -0.768,-0.935 -1.135,-1.726c-1.123,-2.899 -2.591,-4.957 -4.403,-6.175c-1.813,-1.218 -4.097,-1.827 -6.851,-1.827c-3.646,-0 -6.557,1.157 -8.733,3.47c-2.176,2.313 -3.344,5.963 -3.505,10.95c-0.117,2.805 -0.117,5.387 0,7.745c0.19,5.046 1.366,8.704 3.527,10.972c2.161,2.269 5.065,3.403 8.711,3.403c2.844,0 5.157,-0.609 6.94,-1.827c1.783,-1.218 3.221,-3.276 4.314,-6.175c0.337,-0.791 0.708,-1.366 1.112,-1.726c0.405,-0.359 0.988,-0.539 1.752,-0.539l9.628,-0c0.72,-0 1.358,0.249 1.916,0.749c0.558,0.5 0.801,1.131 0.727,1.894c-0.073,1.345 -0.425,2.847 -1.057,4.505c-0.631,1.658 -1.611,3.346 -2.94,5.065c-1.33,1.719 -3.023,3.291 -5.081,4.718c-2.058,1.427 -4.546,2.578 -7.465,3.453c-2.918,0.875 -6.275,1.313 -10.07,1.313Z" style="fill:#114d47;fill-rule:nonzero;"/><path d="M228.033,135.813c-0.763,0 -1.394,-0.25 -1.894,-0.749c-0.499,-0.5 -0.749,-1.131 -0.749,-1.894l0,-72.813c0,-0.764 0.25,-1.395 0.749,-1.894c0.5,-0.5 1.131,-0.75 1.894,-0.75l8.931,0c0.763,0 1.395,0.25 1.894,0.75c0.5,0.499 0.75,1.13 0.75,1.894l-0,20.334c-0.001,2.971 1.767,5.657 4.495,6.833c2.729,1.176 5.895,0.616 8.055,-1.424c3.295,-3.112 5.947,-5.617 5.947,-5.617c0.669,-0.598 1.249,-1.059 1.741,-1.383c0.491,-0.325 1.257,-0.487 2.298,-0.487l10.268,0c0.689,0 1.258,0.224 1.706,0.672c0.448,0.448 0.672,1.017 0.672,1.707c0,0.293 -0.076,0.627 -0.23,1c-0.154,0.374 -0.434,0.699 -0.842,0.976l-22.646,21.255l25.396,27.324c0.685,0.701 1.028,1.331 1.028,1.887c-0,0.69 -0.224,1.259 -0.672,1.707c-0.448,0.448 -1.017,0.672 -1.707,0.672l-10.429,0c-1.1,0 -1.896,-0.166 -2.388,-0.498c-0.491,-0.333 -1.072,-0.79 -1.741,-1.372l-20.951,-22.161l-0,21.388c-0,0.763 -0.25,1.394 -0.75,1.894c-0.499,0.499 -1.131,0.749 -1.894,0.749l-8.931,0Z" style="fill:#114d47;fill-rule:nonzero;"/><path d="M302.352,136.913c-8.126,0 -14.585,-2.343 -19.375,-7.03c-4.791,-4.686 -7.361,-11.357 -7.709,-20.013c-0.043,-0.712 -0.065,-1.643 -0.065,-2.791c-0,-1.148 0.022,-2.064 0.065,-2.746c0.277,-5.523 1.533,-10.296 3.766,-14.318c2.233,-4.022 5.33,-7.111 9.29,-9.267c3.96,-2.157 8.621,-3.235 13.984,-3.235c5.967,0 10.956,1.234 14.966,3.701c4.011,2.467 7.047,5.879 9.11,10.236c2.062,4.358 3.094,9.381 3.094,15.069l-0,2.32c-0,0.763 -0.261,1.395 -0.783,1.894c-0.521,0.5 -1.163,0.75 -1.926,0.75l-36.568,-0l-0,0.876c0.087,2.555 0.596,4.916 1.528,7.081c0.931,2.166 2.293,3.908 4.085,5.227c1.792,1.319 3.942,1.978 6.449,1.978c2.051,0 3.764,-0.312 5.139,-0.938c1.375,-0.626 2.5,-1.343 3.374,-2.152c0.874,-0.809 1.495,-1.462 1.861,-1.959c0.66,-0.835 1.188,-1.343 1.585,-1.527c0.396,-0.183 1.013,-0.275 1.849,-0.275l9.491,0c0.69,0 1.273,0.209 1.75,0.628c0.477,0.418 0.678,0.972 0.605,1.662c-0.073,1.175 -0.672,2.604 -1.794,4.286c-1.123,1.682 -2.753,3.331 -4.89,4.947c-2.137,1.616 -4.793,2.952 -7.967,4.01c-3.174,1.057 -6.812,1.586 -10.914,1.586Zm-12.151,-34.674l24.344,0l0,-0.306c0,-2.832 -0.481,-5.328 -1.442,-7.487c-0.961,-2.158 -2.36,-3.846 -4.195,-5.063c-1.836,-1.217 -4.036,-1.825 -6.6,-1.825c-2.565,-0 -4.754,0.608 -6.568,1.825c-1.814,1.217 -3.19,2.905 -4.13,5.063c-0.94,2.159 -1.409,4.655 -1.409,7.487l-0,0.306Z" style="fill:#114d47;fill-rule:nonzero;"/><path d="M338.37,135.813c-0.763,0 -1.394,-0.25 -1.894,-0.749c-0.499,-0.5 -0.749,-1.131 -0.749,-1.894l-0,-51.848c-0,-0.763 0.25,-1.405 0.749,-1.927c0.5,-0.521 1.131,-0.782 1.894,-0.782l8.866,0c0.763,0 1.405,0.261 1.926,0.782c0.522,0.522 0.782,1.164 0.782,1.927l0,4.568c1.737,-2.358 3.935,-4.16 6.592,-5.407c2.657,-1.247 5.744,-1.87 9.262,-1.87l4.562,0c0.763,0 1.394,0.25 1.894,0.75c0.499,0.499 0.749,1.13 0.749,1.894l0,7.885c0,0.763 -0.25,1.395 -0.749,1.894c-0.5,0.5 -1.131,0.75 -1.894,0.75l-8.573,-0c-3.507,-0 -6.245,0.985 -8.216,2.956c-1.971,1.971 -2.956,4.709 -2.956,8.216l-0,30.212c-0,0.763 -0.261,1.394 -0.782,1.894c-0.522,0.499 -1.164,0.749 -1.927,0.749l-9.536,0Z" style="fill:#114d47;fill-rule:nonzero;"/><path d="M366.62,156.713c-0.763,0 -1.395,-0.25 -1.894,-0.749c-0.5,-0.5 -0.75,-1.131 -0.75,-1.894l0,-6.322c0,-0.763 0.25,-1.394 0.75,-1.894c0.499,-0.5 1.131,-0.749 1.894,-0.749l2.853,-0c2.232,-0 3.903,-0.416 5.013,-1.248c1.111,-0.832 1.853,-1.964 2.226,-3.395c0.374,-1.431 0.561,-3.023 0.561,-4.776l-0,-54.429c-0,-0.764 0.249,-1.395 0.749,-1.894c0.499,-0.5 1.131,-0.75 1.894,-0.75l9.512,0c0.763,0 1.394,0.25 1.894,0.75c0.499,0.499 0.749,1.13 0.749,1.894l-0,54.697c-0,4.281 -0.771,7.971 -2.313,11.071c-1.543,3.099 -3.878,5.489 -7.006,7.168c-3.128,1.68 -7.108,2.52 -11.939,2.52l-4.193,0Zm12.801,-87.546c-0.763,-0 -1.395,-0.25 -1.894,-0.749c-0.5,-0.5 -0.749,-1.131 -0.749,-1.895l-0,-7.889c-0,-0.763 0.249,-1.405 0.749,-1.926c0.499,-0.522 1.131,-0.782 1.894,-0.782l10.436,-0c0.763,-0 1.406,0.26 1.927,0.782c0.521,0.521 0.782,1.163 0.782,1.926l-0,7.889c-0,0.764 -0.261,1.395 -0.782,1.895c-0.521,0.499 -1.164,0.749 -1.927,0.749l-10.436,-0Z" style="fill:#114d47;fill-rule:nonzero;"/><path d="M417.801,136.913c-3.788,0 -7.22,-0.748 -10.294,-2.245c-3.074,-1.496 -5.521,-3.51 -7.339,-6.041c-1.818,-2.531 -2.728,-5.381 -2.728,-8.551c0,-5.135 2.084,-9.214 6.251,-12.236c4.168,-3.021 9.657,-5.046 16.468,-6.075l15.056,-2.197l0,-2.33c0,-3.083 -0.775,-5.467 -2.324,-7.152c-1.549,-1.686 -4.182,-2.528 -7.899,-2.528c-2.681,-0 -4.845,0.528 -6.492,1.584c-1.646,1.057 -2.88,2.452 -3.7,4.187c-0.546,0.981 -1.376,1.471 -2.492,1.471l-8.642,0c-0.821,0 -1.437,-0.231 -1.848,-0.692c-0.411,-0.462 -0.602,-1.038 -0.572,-1.728c0.029,-1.175 0.496,-2.6 1.4,-4.274c0.904,-1.674 2.305,-3.315 4.201,-4.923c1.896,-1.607 4.344,-2.954 7.343,-4.04c2.998,-1.087 6.629,-1.63 10.891,-1.63c4.595,0 8.483,0.564 11.664,1.693c3.181,1.129 5.731,2.658 7.65,4.587c1.919,1.93 3.32,4.173 4.204,6.729c0.883,2.557 1.325,5.248 1.325,8.073l0,34.575c0,0.763 -0.25,1.394 -0.749,1.894c-0.5,0.499 -1.131,0.749 -1.894,0.749l-8.931,0c-0.763,0 -1.394,-0.25 -1.894,-0.749c-0.5,-0.5 -0.749,-1.131 -0.749,-1.894l-0,-4.321c-0.94,1.379 -2.209,2.677 -3.807,3.893c-1.599,1.215 -3.551,2.215 -5.858,2.997c-2.307,0.783 -5.054,1.174 -8.241,1.174Zm3.736,-10.402c2.599,0 4.942,-0.554 7.028,-1.663c2.087,-1.11 3.739,-2.828 4.957,-5.157c1.218,-2.328 1.827,-5.251 1.827,-8.769l0,-2.265l-11.062,1.756c-4.345,0.658 -7.566,1.724 -9.663,3.197c-2.096,1.474 -3.145,3.267 -3.145,5.38c0,1.645 0.481,3.022 1.442,4.13c0.961,1.108 2.211,1.95 3.749,2.527c1.537,0.576 3.16,0.864 4.867,0.864Z" style="fill:#114d47;fill-rule:nonzero;"/><path d="M483.251,136.913c-5.312,0 -9.959,-0.993 -13.939,-2.98c-3.981,-1.987 -7.093,-4.872 -9.335,-8.656c-2.242,-3.783 -3.467,-8.323 -3.673,-13.619c-0.073,-1.13 -0.11,-2.597 -0.11,-4.4c0,-1.804 0.037,-3.285 0.11,-4.445c0.206,-5.339 1.423,-9.898 3.651,-13.674c2.227,-3.777 5.339,-6.659 9.334,-8.646c3.996,-1.986 8.65,-2.98 13.962,-2.98c4.661,0 8.656,0.651 11.986,1.953c3.33,1.301 6.053,2.948 8.169,4.939c2.117,1.992 3.704,4.074 4.761,6.246c1.058,2.173 1.623,4.145 1.697,5.916c0.073,0.763 -0.169,1.395 -0.727,1.894c-0.558,0.5 -1.197,0.75 -1.917,0.75l-9.628,-0c-0.763,-0 -1.34,-0.18 -1.729,-0.54c-0.39,-0.36 -0.768,-0.935 -1.135,-1.726c-1.122,-2.899 -2.59,-4.957 -4.403,-6.175c-1.813,-1.218 -4.096,-1.827 -6.851,-1.827c-3.646,-0 -6.557,1.157 -8.733,3.47c-2.176,2.313 -3.344,5.963 -3.504,10.95c-0.117,2.805 -0.117,5.387 -0,7.745c0.19,5.046 1.365,8.704 3.526,10.972c2.161,2.269 5.065,3.403 8.711,3.403c2.844,0 5.157,-0.609 6.94,-1.827c1.783,-1.218 3.221,-3.276 4.314,-6.175c0.337,-0.791 0.708,-1.366 1.112,-1.726c0.405,-0.359 0.989,-0.539 1.752,-0.539l9.628,-0c0.72,-0 1.359,0.249 1.917,0.749c0.558,0.5 0.8,1.131 0.727,1.894c-0.074,1.345 -0.426,2.847 -1.057,4.505c-0.632,1.658 -1.612,3.346 -2.941,5.065c-1.329,1.719 -3.023,3.291 -5.081,4.718c-2.058,1.427 -4.546,2.578 -7.464,3.453c-2.919,0.875 -6.275,1.313 -10.07,1.313Z" style="fill:#114d47;fill-rule:nonzero;"/><path d="M518.554,135.813c-0.763,0 -1.395,-0.25 -1.894,-0.749c-0.5,-0.5 -0.75,-1.131 -0.75,-1.894l0,-72.813c0,-0.764 0.25,-1.395 0.75,-1.894c0.499,-0.5 1.131,-0.75 1.894,-0.75l8.93,0c0.764,0 1.395,0.25 1.894,0.75c0.5,0.499 0.75,1.13 0.75,1.894l-0,37.599l18.497,-17.473c0.669,-0.598 1.25,-1.059 1.741,-1.383c0.492,-0.325 1.258,-0.487 2.298,-0.487l10.268,0c0.69,0 1.259,0.224 1.707,0.672c0.448,0.448 0.672,1.017 0.672,1.707c-0,0.293 -0.077,0.627 -0.231,1c-0.153,0.374 -0.434,0.699 -0.842,0.976l-22.646,21.255l25.396,27.324c0.685,0.701 1.028,1.331 1.028,1.887c-0,0.69 -0.224,1.259 -0.672,1.707c-0.448,0.448 -1.017,0.672 -1.707,0.672l-10.429,0c-1.1,0 -1.896,-0.166 -2.388,-0.498c-0.491,-0.333 -1.071,-0.79 -1.741,-1.372l-20.951,-22.161l-0,21.388c-0,0.763 -0.25,1.394 -0.75,1.894c-0.499,0.499 -1.13,0.749 -1.894,0.749l-8.93,0Z" style="fill:#114d47;fill-rule:nonzero;"/></g><circle cx="384.716" cy="61.997" r="10" style="fill:#11474d;"/></g><g><path d="M7.309,167.724c-0.23,-0 -0.427,-0.082 -0.59,-0.244c-0.162,-0.163 -0.244,-0.36 -0.244,-0.59l0,-20.726c0,-0.235 0.082,-0.434 0.244,-0.596c0.163,-0.163 0.36,-0.244 0.59,-0.244l9.336,-0c1.858,-0 3.474,0.276 4.85,0.83c1.376,0.553 2.446,1.394 3.21,2.523c0.764,1.128 1.146,2.548 1.146,4.259c0,1.71 -0.382,3.113 -1.146,4.207c-0.764,1.094 -1.834,1.9 -3.21,2.419c-1.376,0.518 -2.992,0.778 -4.85,0.778l-3.032,-0l0,6.55c0,0.23 -0.081,0.427 -0.244,0.59c-0.162,0.162 -0.361,0.244 -0.596,0.244l-5.464,-0Zm6.174,-12.554l3.002,-0c0.626,-0 1.153,-0.185 1.583,-0.553c0.43,-0.369 0.645,-0.947 0.645,-1.733c0,-0.614 -0.167,-1.161 -0.502,-1.642c-0.334,-0.482 -0.91,-0.722 -1.726,-0.722l-3.002,-0l0,4.65Z" style="fill:#114d47;fill-rule:nonzero;"/><path d="M32.287,167.724c-0.23,-0 -0.427,-0.082 -0.59,-0.244c-0.162,-0.163 -0.244,-0.36 -0.244,-0.59l0,-20.726c0,-0.235 0.082,-0.434 0.244,-0.596c0.163,-0.163 0.36,-0.244 0.59,-0.244l15.678,-0c0.235,-0 0.434,0.081 0.596,0.244c0.163,0.162 0.244,0.361 0.244,0.596l0,3.756c0,0.23 -0.081,0.427 -0.244,0.59c-0.162,0.162 -0.361,0.244 -0.596,0.244l-9.894,-0l0,3.168l9.19,-0c0.235,-0 0.434,0.081 0.596,0.244c0.163,0.162 0.244,0.361 0.244,0.596l0,3.47c0,0.23 -0.081,0.427 -0.244,0.59c-0.162,0.162 -0.361,0.244 -0.596,0.244l-9.19,-0l0,3.228l10.15,-0c0.235,-0 0.434,0.081 0.596,0.244c0.163,0.162 0.244,0.361 0.244,0.596l0,3.756c0,0.23 -0.081,0.427 -0.244,0.59c-0.162,0.162 -0.361,0.244 -0.596,0.244l-15.934,-0Z" style="fill:#114d47;fill-rule:nonzero;"/><path d="M64.705,168.044c-2.03,-0 -3.799,-0.319 -5.305,-0.957c-1.506,-0.638 -2.689,-1.605 -3.55,-2.899c-0.86,-1.295 -1.331,-2.902 -1.413,-4.82c-0.021,-0.891 -0.032,-1.813 -0.032,-2.766c0,-0.954 0.011,-1.893 0.032,-2.818c0.082,-1.898 0.552,-3.498 1.412,-4.801c0.86,-1.304 2.049,-2.293 3.565,-2.967c1.517,-0.675 3.281,-1.012 5.291,-1.012c2.011,-0 3.775,0.337 5.291,1.012c1.517,0.674 2.711,1.663 3.581,2.967c0.871,1.303 1.336,2.903 1.396,4.801c0.043,0.925 0.064,1.864 0.064,2.818c0,0.953 -0.021,1.875 -0.064,2.766c-0.077,1.918 -0.547,3.525 -1.41,4.82c-0.862,1.294 -2.047,2.261 -3.553,2.899c-1.506,0.638 -3.274,0.957 -5.305,0.957Zm0,-5.43c0.916,-0 1.659,-0.273 2.227,-0.819c0.569,-0.546 0.87,-1.417 0.903,-2.613c0.043,-0.926 0.064,-1.82 0.064,-2.684c0,-0.864 -0.021,-1.742 -0.064,-2.632c-0.025,-0.798 -0.173,-1.45 -0.444,-1.958c-0.27,-0.508 -0.633,-0.881 -1.089,-1.118c-0.455,-0.238 -0.987,-0.356 -1.597,-0.356c-0.588,-0 -1.114,0.118 -1.578,0.356c-0.464,0.237 -0.831,0.61 -1.102,1.118c-0.27,0.508 -0.42,1.16 -0.45,1.958c-0.021,0.89 -0.032,1.768 -0.032,2.632c0,0.864 0.011,1.758 0.032,2.684c0.051,1.196 0.357,2.067 0.919,2.613c0.562,0.546 1.299,0.819 2.211,0.819Z" style="fill:#114d47;fill-rule:nonzero;"/><path d="M82.045,167.724c-0.23,-0 -0.427,-0.082 -0.59,-0.244c-0.162,-0.163 -0.244,-0.36 -0.244,-0.59l0,-20.726c0,-0.235 0.082,-0.434 0.244,-0.596c0.163,-0.163 0.36,-0.244 0.59,-0.244l9.336,-0c1.858,-0 3.474,0.276 4.85,0.83c1.376,0.553 2.446,1.394 3.21,2.523c0.764,1.128 1.146,2.548 1.146,4.259c0,1.71 -0.382,3.113 -1.146,4.207c-0.764,1.094 -1.834,1.9 -3.21,2.419c-1.376,0.518 -2.992,0.778 -4.85,0.778l-3.032,-0l0,6.55c0,0.23 -0.081,0.427 -0.244,0.59c-0.162,0.162 -0.361,0.244 -0.596,0.244l-5.464,-0Zm6.174,-12.554l3.002,-0c0.626,-0 1.153,-0.185 1.583,-0.553c0.43,-0.369 0.645,-0.947 0.645,-1.733c0,-0.614 -0.167,-1.161 -0.502,-1.642c-0.334,-0.482 -0.91,-0.722 -1.726,-0.722l-3.002,-0l0,4.65Z" style="fill:#114d47;fill-rule:nonzero;"/><path d="M107.023,167.724c-0.23,-0 -0.427,-0.082 -0.59,-0.244c-0.162,-0.163 -0.244,-0.36 -0.244,-0.59l0,-20.732c0,-0.231 0.082,-0.428 0.244,-0.59c0.163,-0.163 0.36,-0.244 0.59,-0.244l5.314,-0c0.231,-0 0.428,0.081 0.59,0.244c0.163,0.162 0.244,0.359 0.244,0.59l0,15.876l9.272,-0c0.235,-0 0.434,0.081 0.596,0.244c0.163,0.162 0.244,0.361 0.244,0.596l0,4.016c0,0.23 -0.081,0.427 -0.244,0.59c-0.162,0.162 -0.361,0.244 -0.596,0.244l-15.42,-0Z" style="fill:#114d47;fill-rule:nonzero;"/><path d="M129.467,167.724c-0.23,-0 -0.427,-0.082 -0.59,-0.244c-0.162,-0.163 -0.244,-0.36 -0.244,-0.59l0,-20.726c0,-0.235 0.082,-0.434 0.244,-0.596c0.163,-0.163 0.36,-0.244 0.59,-0.244l15.678,-0c0.235,-0 0.434,0.081 0.596,0.244c0.163,0.162 0.244,0.361 0.244,0.596l0,3.756c0,0.23 -0.081,0.427 -0.244,0.59c-0.162,0.162 -0.361,0.244 -0.596,0.244l-9.894,-0l0,3.168l9.19,-0c0.235,-0 0.434,0.081 0.596,0.244c0.163,0.162 0.244,0.361 0.244,0.596l0,3.47c0,0.23 -0.081,0.427 -0.244,0.59c-0.162,0.162 -0.361,0.244 -0.596,0.244l-9.19,-0l0,3.228l10.15,-0c0.235,-0 0.434,0.081 0.596,0.244c0.163,0.162 0.244,0.361 0.244,0.596l0,3.756c0,0.23 -0.081,0.427 -0.244,0.59c-0.162,0.162 -0.361,0.244 -0.596,0.244l-15.934,-0Z" style="fill:#114d47;fill-rule:nonzero;"/><path d="M162.505,167.724c-0.23,-0 -0.427,-0.082 -0.59,-0.244c-0.162,-0.163 -0.244,-0.36 -0.244,-0.59l0,-20.726c0,-0.235 0.082,-0.434 0.244,-0.596c0.163,-0.163 0.36,-0.244 0.59,-0.244l9.336,-0c1.858,-0 3.474,0.276 4.85,0.83c1.376,0.553 2.446,1.394 3.21,2.523c0.764,1.128 1.146,2.548 1.146,4.259c0,1.71 -0.382,3.113 -1.146,4.207c-0.764,1.094 -1.834,1.9 -3.21,2.419c-1.376,0.518 -2.992,0.778 -4.85,0.778l-3.032,-0l0,6.55c0,0.23 -0.081,0.427 -0.244,0.59c-0.162,0.162 -0.361,0.244 -0.596,0.244l-5.464,-0Zm6.174,-12.554l3.002,-0c0.626,-0 1.153,-0.185 1.583,-0.553c0.43,-0.369 0.645,-0.947 0.645,-1.733c0,-0.614 -0.167,-1.161 -0.502,-1.642c-0.334,-0.482 -0.91,-0.722 -1.726,-0.722l-3.002,-0l0,4.65Z" style="fill:#114d47;fill-rule:nonzero;"/><path d="M183.827,167.724c-0.188,-0 -0.35,-0.069 -0.487,-0.205c-0.136,-0.137 -0.205,-0.299 -0.205,-0.487c0,-0.09 0.013,-0.172 0.038,-0.248l7.316,-20.482c0.068,-0.231 0.211,-0.452 0.427,-0.662c0.217,-0.211 0.523,-0.316 0.917,-0.316l5.846,-0c0.395,-0 0.701,0.105 0.917,0.316c0.217,0.21 0.359,0.431 0.427,0.662l7.316,20.482c0.026,0.076 0.038,0.158 0.038,0.248c0,0.188 -0.068,0.35 -0.205,0.487c-0.136,0.136 -0.299,0.205 -0.487,0.205l-4.93,-0c-0.369,-0 -0.637,-0.085 -0.805,-0.254c-0.167,-0.17 -0.281,-0.332 -0.341,-0.486l-0.996,-2.676l-7.714,-0l-0.996,2.676c-0.056,0.154 -0.164,0.316 -0.325,0.486c-0.16,0.169 -0.434,0.254 -0.821,0.254l-4.93,-0Zm8.542,-8.846l4.774,-0l-2.4,-7.2l-2.374,7.2Z" style="fill:#114d47;fill-rule:nonzero;"/><path d="M212.229,167.724c-0.23,-0 -0.427,-0.082 -0.59,-0.244c-0.162,-0.163 -0.244,-0.36 -0.244,-0.59l0,-20.726c0,-0.235 0.082,-0.434 0.244,-0.596c0.163,-0.163 0.36,-0.244 0.59,-0.244l9.094,-0c2.916,-0 5.201,0.663 6.855,1.99c1.654,1.326 2.481,3.173 2.481,5.54c0,1.481 -0.344,2.747 -1.033,3.797c-0.688,1.05 -1.582,1.869 -2.681,2.457l4.164,7.572c0.064,0.128 0.096,0.245 0.096,0.352c0,0.188 -0.068,0.35 -0.205,0.487c-0.136,0.136 -0.299,0.205 -0.487,0.205l-5.402,-0c-0.41,-0 -0.718,-0.104 -0.924,-0.311c-0.205,-0.208 -0.346,-0.392 -0.422,-0.553l-3.19,-6.58l-2.302,-0l0,6.61c0,0.23 -0.081,0.427 -0.244,0.59c-0.162,0.162 -0.361,0.244 -0.596,0.244l-5.204,-0Zm6.044,-12.744l3.02,-0c0.747,-0 1.305,-0.206 1.674,-0.616c0.37,-0.411 0.554,-0.932 0.554,-1.562c0,-0.631 -0.176,-1.169 -0.528,-1.614c-0.352,-0.446 -0.918,-0.668 -1.7,-0.668l-3.02,-0l0,4.46Z" style="fill:#114d47;fill-rule:nonzero;"/><path d="M242.445,167.724c-0.23,-0 -0.427,-0.082 -0.59,-0.244c-0.162,-0.163 -0.244,-0.36 -0.244,-0.59l0,-15.616l-5.504,-0c-0.23,-0 -0.427,-0.082 -0.59,-0.244c-0.162,-0.163 -0.244,-0.36 -0.244,-0.59l0,-4.276c0,-0.235 0.082,-0.434 0.244,-0.596c0.163,-0.163 0.36,-0.244 0.59,-0.244l17.984,-0c0.235,-0 0.434,0.081 0.596,0.244c0.163,0.162 0.244,0.361 0.244,0.596l0,4.276c0,0.23 -0.081,0.427 -0.244,0.59c-0.162,0.162 -0.361,0.244 -0.596,0.244l-5.498,-0l0,15.616c0,0.23 -0.081,0.427 -0.244,0.59c-0.162,0.162 -0.361,0.244 -0.596,0.244l-5.308,-0Z" style="fill:#114d47;fill-rule:nonzero;"/><path d="M261.243,167.724c-0.23,-0 -0.427,-0.082 -0.59,-0.244c-0.162,-0.163 -0.244,-0.36 -0.244,-0.59l0,-20.726c0,-0.235 0.082,-0.434 0.244,-0.596c0.163,-0.163 0.36,-0.244 0.59,-0.244l4.234,-0c0.387,-0 0.668,0.088 0.844,0.264c0.176,0.176 0.292,0.311 0.348,0.406l6.608,10.586l0,-10.416c0,-0.235 0.082,-0.434 0.244,-0.596c0.163,-0.163 0.36,-0.244 0.59,-0.244l4.814,-0c0.235,-0 0.434,0.081 0.596,0.244c0.163,0.162 0.244,0.361 0.244,0.596l0,20.72c0,0.23 -0.081,0.428 -0.244,0.593c-0.162,0.164 -0.359,0.247 -0.59,0.247l-4.24,-0c-0.386,-0 -0.667,-0.093 -0.841,-0.277c-0.174,-0.185 -0.291,-0.316 -0.351,-0.393l-6.602,-10.002l0,9.838c0,0.23 -0.081,0.427 -0.244,0.59c-0.162,0.162 -0.361,0.244 -0.596,0.244l-4.814,-0Z" style="fill:#114d47;fill-rule:nonzero;"/><path d="M287.467,167.724c-0.23,-0 -0.427,-0.082 -0.59,-0.244c-0.162,-0.163 -0.244,-0.36 -0.244,-0.59l0,-20.726c0,-0.235 0.082,-0.434 0.244,-0.596c0.163,-0.163 0.36,-0.244 0.59,-0.244l15.678,-0c0.235,-0 0.434,0.081 0.596,0.244c0.163,0.162 0.244,0.361 0.244,0.596l0,3.756c0,0.23 -0.081,0.427 -0.244,0.59c-0.162,0.162 -0.361,0.244 -0.596,0.244l-9.894,-0l0,3.168l9.19,-0c0.235,-0 0.434,0.081 0.596,0.244c0.163,0.162 0.244,0.361 0.244,0.596l0,3.47c0,0.23 -0.081,0.427 -0.244,0.59c-0.162,0.162 -0.361,0.244 -0.596,0.244l-9.19,-0l0,3.228l10.15,-0c0.235,-0 0.434,0.081 0.596,0.244c0.163,0.162 0.244,0.361 0.244,0.596l0,3.756c0,0.23 -0.081,0.427 -0.244,0.59c-0.162,0.162 -0.361,0.244 -0.596,0.244l-15.934,-0Z" style="fill:#114d47;fill-rule:nonzero;"/><path d="M311.241,167.724c-0.23,-0 -0.427,-0.082 -0.59,-0.244c-0.162,-0.163 -0.244,-0.36 -0.244,-0.59l0,-20.726c0,-0.235 0.082,-0.434 0.244,-0.596c0.163,-0.163 0.36,-0.244 0.59,-0.244l9.094,-0c2.916,-0 5.201,0.663 6.855,1.99c1.654,1.326 2.481,3.173 2.481,5.54c0,1.481 -0.344,2.747 -1.033,3.797c-0.688,1.05 -1.582,1.869 -2.681,2.457l4.164,7.572c0.064,0.128 0.096,0.245 0.096,0.352c0,0.188 -0.068,0.35 -0.205,0.487c-0.136,0.136 -0.299,0.205 -0.487,0.205l-5.402,-0c-0.41,-0 -0.718,-0.104 -0.924,-0.311c-0.205,-0.208 -0.346,-0.392 -0.422,-0.553l-3.19,-6.58l-2.302,-0l0,6.61c0,0.23 -0.081,0.427 -0.244,0.59c-0.162,0.162 -0.361,0.244 -0.596,0.244l-5.204,-0Zm6.044,-12.744l3.02,-0c0.747,-0 1.305,-0.206 1.674,-0.616c0.37,-0.411 0.554,-0.932 0.554,-1.562c0,-0.631 -0.176,-1.169 -0.528,-1.614c-0.352,-0.446 -0.918,-0.668 -1.7,-0.668l-3.02,-0l0,4.46Z" style="fill:#114d47;fill-rule:nonzero;"/><path d="M344.751,168.044c-2.248,-0 -4.109,-0.312 -5.583,-0.936c-1.474,-0.624 -2.583,-1.443 -3.327,-2.456c-0.744,-1.014 -1.137,-2.089 -1.18,-3.226c0,-0.188 0.069,-0.351 0.205,-0.487c0.137,-0.137 0.301,-0.205 0.493,-0.205l5.06,-0c0.318,-0 0.561,0.051 0.73,0.153c0.17,0.102 0.343,0.238 0.52,0.409c0.19,0.233 0.417,0.452 0.683,0.658c0.266,0.205 0.598,0.366 0.996,0.484c0.398,0.117 0.866,0.176 1.403,0.176c0.982,-0 1.74,-0.136 2.275,-0.408c0.536,-0.272 0.803,-0.641 0.803,-1.106c0,-0.368 -0.146,-0.671 -0.44,-0.907c-0.293,-0.237 -0.778,-0.451 -1.456,-0.641c-0.677,-0.191 -1.599,-0.386 -2.766,-0.586c-1.653,-0.283 -3.074,-0.699 -4.264,-1.247c-1.189,-0.549 -2.1,-1.288 -2.732,-2.216c-0.632,-0.929 -0.948,-2.075 -0.948,-3.439c0,-1.383 0.388,-2.606 1.163,-3.669c0.776,-1.064 1.86,-1.895 3.253,-2.493c1.394,-0.599 3.027,-0.898 4.9,-0.898c1.536,-0 2.895,0.201 4.076,0.603c1.182,0.402 2.177,0.929 2.986,1.581c0.81,0.652 1.426,1.351 1.85,2.097c0.424,0.746 0.647,1.463 0.668,2.151c0,0.184 -0.066,0.345 -0.199,0.484c-0.132,0.138 -0.29,0.208 -0.473,0.208l-5.32,-0c-0.262,-0 -0.482,-0.043 -0.66,-0.128c-0.177,-0.086 -0.348,-0.222 -0.512,-0.408c-0.11,-0.287 -0.376,-0.552 -0.796,-0.794c-0.42,-0.243 -0.96,-0.364 -1.62,-0.364c-0.729,-0 -1.287,0.123 -1.675,0.369c-0.387,0.246 -0.581,0.605 -0.581,1.079c0,0.316 0.12,0.594 0.36,0.835c0.24,0.24 0.658,0.452 1.254,0.634c0.596,0.182 1.426,0.371 2.49,0.567c2.034,0.304 3.673,0.733 4.917,1.289c1.245,0.555 2.154,1.283 2.726,2.184c0.573,0.9 0.859,2.024 0.859,3.371c0,1.509 -0.438,2.808 -1.314,3.897c-0.876,1.088 -2.076,1.925 -3.6,2.509c-1.524,0.584 -3.265,0.876 -5.224,0.876Z" style="fill:#114d47;fill-rule:nonzero;"/></g></g></g></svg>