<?xml version="1.0" encoding="UTF-8" standalone="no"?><!DOCTYPE svg PUBLIC "-//W3C//DTD SVG 1.1//EN" "http://www.w3.org/Graphics/SVG/1.1/DTD/svg11.dtd"><svg width="100%" height="100%" viewBox="0 0 632 239" version="1.1" xmlns="http://www.w3.org/2000/svg" xmlns:xlink="http://www.w3.org/1999/xlink" xml:space="preserve" xmlns:serif="http://www.serif.com/" style="fill-rule:evenodd;clip-rule:evenodd;stroke-linejoin:round;stroke-miterlimit:2;"><rect id="logo" x="0" y="0" width="631.447" height="238.879" style="fill:none;"/><g><g><g><path d="M460.669,60.995l-34.926,34.926c-3.902,3.903 -10.239,3.903 -14.142,-0c-3.903,-3.903 -3.903,-10.24 0,-14.142l34.926,-34.926l-21.14,0c-5.519,0 -10,-4.481 -10,-10c0,-5.519 4.481,-10 10,-10l45.282,0c5.523,0 10,4.477 10,10l-0,45.282c-0,5.519 -4.481,10 -10,10c-5.519,-0 -10,-4.481 -10,-10l-0,-21.14Z" style="fill:#699e99;"/></g><g><path d="M66.344,163.766c-6.822,0 -12.588,-1.19 -17.296,-3.569c-4.708,-2.38 -8.32,-5.792 -10.835,-10.236c-2.515,-4.443 -3.897,-9.778 -4.147,-16.005c-0.074,-3.006 -0.11,-6.233 -0.11,-9.68c-0,-3.446 0.036,-6.746 0.11,-9.9c0.25,-6.166 1.647,-11.483 4.192,-15.948c2.545,-4.465 6.179,-7.892 10.902,-10.28c4.723,-2.388 10.451,-3.582 17.184,-3.582c4.998,0 9.472,0.652 13.422,1.955c3.949,1.302 7.325,3.123 10.127,5.462c2.801,2.338 4.964,5.047 6.488,8.124c1.524,3.078 2.344,6.414 2.461,10.007c0.044,0.66 -0.173,1.206 -0.65,1.64c-0.476,0.433 -1.045,0.649 -1.705,0.649l-10.422,0c-0.825,0 -1.48,-0.194 -1.965,-0.584c-0.484,-0.39 -0.86,-1.084 -1.125,-2.083c-1.155,-4.829 -3.159,-8.125 -6.011,-9.89c-2.852,-1.764 -6.407,-2.647 -10.665,-2.647c-4.945,0 -8.873,1.382 -11.783,4.146c-2.911,2.764 -4.483,7.291 -4.717,13.581c-0.22,6.014 -0.22,12.174 0,18.48c0.234,6.291 1.806,10.818 4.717,13.582c2.91,2.764 6.838,4.146 11.783,4.146c4.258,-0 7.821,-0.898 10.687,-2.692c2.867,-1.794 4.863,-5.076 5.989,-9.845c0.236,-1.029 0.603,-1.731 1.103,-2.105c0.5,-0.375 1.162,-0.562 1.987,-0.562l10.422,-0c0.66,-0 1.229,0.216 1.705,0.649c0.477,0.433 0.694,0.98 0.65,1.64c-0.117,3.593 -0.937,6.929 -2.461,10.006c-1.524,3.078 -3.687,5.786 -6.488,8.125c-2.802,2.339 -6.178,4.159 -10.127,5.462c-3.95,1.303 -8.424,1.954 -13.422,1.954Z" style="fill:#11474d;fill-rule:nonzero;"/><path d="M107.821,162.666c-0.763,0 -1.395,-0.249 -1.894,-0.749c-0.5,-0.5 -0.75,-1.131 -0.75,-1.894l0,-51.848c0,-0.763 0.25,-1.405 0.75,-1.927c0.499,-0.521 1.131,-0.782 1.894,-0.782l8.865,0c0.763,0 1.406,0.261 1.927,0.782c0.521,0.522 0.782,1.164 0.782,1.927l-0,4.569c1.737,-2.359 3.934,-4.161 6.591,-5.408c2.657,-1.246 5.745,-1.87 9.263,-1.87l4.561,0c0.763,0 1.395,0.25 1.894,0.75c0.5,0.499 0.75,1.131 0.75,1.894l-0,7.885c-0,0.764 -0.25,1.395 -0.75,1.895c-0.499,0.499 -1.131,0.749 -1.894,0.749l-8.573,-0c-3.506,-0 -6.245,0.985 -8.216,2.956c-1.97,1.971 -2.956,4.71 -2.956,8.216l0,30.212c0,0.763 -0.26,1.394 -0.782,1.894c-0.521,0.5 -1.163,0.749 -1.927,0.749l-9.535,0Z" style="fill:#11474d;fill-rule:nonzero;"/><path d="M161.236,163.766c-3.788,0 -7.219,-0.748 -10.293,-2.244c-3.075,-1.497 -5.521,-3.511 -7.34,-6.042c-1.818,-2.531 -2.727,-5.381 -2.727,-8.55c-0,-5.136 2.084,-9.215 6.251,-12.236c4.167,-3.022 9.656,-5.047 16.467,-6.076l15.057,-2.197l-0,-2.33c-0,-3.082 -0.775,-5.466 -2.324,-7.152c-1.549,-1.685 -4.183,-2.528 -7.9,-2.528c-2.681,-0 -4.845,0.528 -6.491,1.584c-1.647,1.057 -2.88,2.453 -3.701,4.187c-0.545,0.981 -1.376,1.472 -2.492,1.472l-8.642,-0c-0.82,-0 -1.436,-0.231 -1.848,-0.693c-0.411,-0.462 -0.602,-1.038 -0.572,-1.727c0.03,-1.176 0.497,-2.601 1.401,-4.275c0.904,-1.674 2.304,-3.315 4.201,-4.922c1.896,-1.608 4.343,-2.955 7.342,-4.041c2.999,-1.086 6.629,-1.63 10.892,-1.63c4.595,0 8.482,0.565 11.663,1.693c3.181,1.129 5.731,2.658 7.65,4.588c1.92,1.929 3.321,4.172 4.204,6.729c0.884,2.556 1.326,5.247 1.326,8.073l-0,34.574c-0,0.763 -0.25,1.394 -0.75,1.894c-0.499,0.5 -1.131,0.749 -1.894,0.749l-8.93,0c-0.764,0 -1.395,-0.249 -1.895,-0.749c-0.499,-0.5 -0.749,-1.131 -0.749,-1.894l0,-4.321c-0.94,1.38 -2.209,2.677 -3.807,3.893c-1.598,1.216 -3.551,2.215 -5.857,2.998c-2.307,0.782 -5.054,1.173 -8.242,1.173Zm3.737,-10.401c2.598,-0 4.941,-0.555 7.028,-1.664c2.086,-1.109 3.739,-2.828 4.957,-5.156c1.218,-2.329 1.827,-5.252 1.827,-8.77l-0,-2.265l-11.062,1.757c-4.345,0.657 -7.566,1.723 -9.663,3.197c-2.097,1.473 -3.145,3.266 -3.145,5.379c-0,1.646 0.48,3.022 1.442,4.13c0.961,1.108 2.21,1.951 3.748,2.527c1.538,0.576 3.16,0.865 4.868,0.865Z" style="fill:#11474d;fill-rule:nonzero;"/><path d="M226.686,163.766c-5.312,0 -9.958,-0.993 -13.939,-2.98c-3.981,-1.987 -7.092,-4.872 -9.334,-8.656c-2.243,-3.783 -3.467,-8.323 -3.673,-13.619c-0.074,-1.13 -0.11,-2.596 -0.11,-4.4c-0,-1.803 0.036,-3.285 0.11,-4.445c0.206,-5.339 1.423,-9.897 3.65,-13.674c2.228,-3.777 5.339,-6.658 9.335,-8.645c3.995,-1.987 8.649,-2.981 13.961,-2.981c4.661,0 8.657,0.651 11.987,1.953c3.329,1.302 6.053,2.948 8.169,4.94c2.116,1.991 3.703,4.073 4.761,6.246c1.057,2.172 1.623,4.144 1.696,5.915c0.074,0.764 -0.169,1.395 -0.727,1.895c-0.558,0.499 -1.197,0.749 -1.916,0.749l-9.629,-0c-0.763,-0 -1.339,-0.18 -1.729,-0.54c-0.389,-0.36 -0.767,-0.935 -1.134,-1.725c-1.123,-2.899 -2.591,-4.958 -4.403,-6.176c-1.813,-1.218 -4.097,-1.827 -6.851,-1.827c-3.646,0 -6.557,1.157 -8.733,3.47c-2.176,2.314 -3.345,5.964 -3.505,10.95c-0.117,2.805 -0.117,5.387 0,7.745c0.19,5.046 1.366,8.704 3.527,10.973c2.161,2.268 5.065,3.403 8.711,3.403c2.844,-0 5.157,-0.609 6.94,-1.827c1.783,-1.218 3.221,-3.277 4.314,-6.176c0.337,-0.79 0.708,-1.366 1.112,-1.725c0.404,-0.36 0.988,-0.54 1.751,-0.54l9.629,-0c0.719,-0 1.358,0.25 1.916,0.749c0.558,0.5 0.801,1.131 0.727,1.894c-0.073,1.346 -0.425,2.847 -1.057,4.505c-0.631,1.658 -1.611,3.347 -2.941,5.065c-1.329,1.719 -3.022,3.292 -5.08,4.718c-2.058,1.427 -4.546,2.578 -7.465,3.453c-2.918,0.876 -6.275,1.313 -10.07,1.313Z" style="fill:#11474d;fill-rule:nonzero;"/><path d="M261.989,162.666c-0.763,0 -1.394,-0.249 -1.894,-0.749c-0.499,-0.5 -0.749,-1.131 -0.749,-1.894l-0,-72.813c-0,-0.763 0.25,-1.395 0.749,-1.894c0.5,-0.5 1.131,-0.75 1.894,-0.75l8.931,0c0.763,0 1.394,0.25 1.894,0.75c0.5,0.499 0.749,1.131 0.749,1.894l0,20.334c0,2.971 1.768,5.658 4.496,6.834c2.729,1.176 5.895,0.616 8.055,-1.424c3.295,-3.113 5.947,-5.618 5.947,-5.618c0.669,-0.598 1.249,-1.059 1.741,-1.383c0.491,-0.324 1.257,-0.487 2.298,-0.487l10.267,0c0.69,0 1.259,0.224 1.707,0.672c0.448,0.448 0.672,1.017 0.672,1.707c0,0.294 -0.077,0.627 -0.23,1c-0.154,0.374 -0.434,0.699 -0.842,0.977l-22.647,21.254l25.397,27.324c0.685,0.702 1.027,1.331 1.027,1.888c0,0.689 -0.224,1.258 -0.672,1.706c-0.448,0.448 -1.017,0.672 -1.706,0.672l-10.43,0c-1.1,0 -1.895,-0.166 -2.387,-0.498c-0.492,-0.332 -1.072,-0.789 -1.741,-1.372l-20.952,-22.161l0,21.388c0,0.763 -0.249,1.394 -0.749,1.894c-0.5,0.5 -1.131,0.749 -1.894,0.749l-8.931,0Z" style="fill:#11474d;fill-rule:nonzero;"/><path d="M336.308,163.766c-8.126,0 -14.585,-2.343 -19.375,-7.029c-4.791,-4.687 -7.361,-11.358 -7.709,-20.013c-0.044,-0.713 -0.065,-1.644 -0.065,-2.792c-0,-1.148 0.021,-2.063 0.065,-2.746c0.277,-5.523 1.533,-10.296 3.766,-14.317c2.233,-4.022 5.33,-7.111 9.29,-9.268c3.96,-2.156 8.621,-3.235 13.983,-3.235c5.968,0 10.957,1.234 14.967,3.701c4.011,2.467 7.047,5.879 9.11,10.237c2.062,4.357 3.093,9.38 3.093,15.068l0,2.32c0,0.763 -0.26,1.395 -0.782,1.894c-0.521,0.5 -1.163,0.75 -1.926,0.75l-36.569,-0l0,0.876c0.088,2.556 0.597,4.916 1.528,7.082c0.932,2.165 2.294,3.907 4.086,5.226c1.792,1.319 3.942,1.979 6.449,1.979c2.051,-0 3.764,-0.313 5.139,-0.939c1.375,-0.625 2.499,-1.343 3.374,-2.152c0.874,-0.809 1.494,-1.462 1.861,-1.959c0.66,-0.834 1.188,-1.343 1.585,-1.526c0.396,-0.184 1.013,-0.275 1.849,-0.275l9.491,-0c0.69,-0 1.273,0.209 1.75,0.627c0.476,0.418 0.678,0.972 0.605,1.662c-0.074,1.176 -0.672,2.605 -1.795,4.287c-1.123,1.682 -2.753,3.331 -4.89,4.946c-2.136,1.616 -4.792,2.952 -7.966,4.01c-3.174,1.058 -6.812,1.586 -10.914,1.586Zm-12.152,-34.674l24.345,0l-0,-0.306c-0,-2.832 -0.481,-5.328 -1.442,-7.486c-0.962,-2.159 -2.36,-3.847 -4.196,-5.064c-1.835,-1.217 -4.035,-1.825 -6.6,-1.825c-2.564,-0 -4.753,0.608 -6.567,1.825c-1.814,1.217 -3.191,2.905 -4.13,5.064c-0.94,2.158 -1.41,4.654 -1.41,7.486l0,0.306Z" style="fill:#11474d;fill-rule:nonzero;"/><path d="M372.326,162.666c-0.763,0 -1.394,-0.249 -1.894,-0.749c-0.5,-0.5 -0.749,-1.131 -0.749,-1.894l-0,-51.848c-0,-0.763 0.249,-1.405 0.749,-1.927c0.5,-0.521 1.131,-0.782 1.894,-0.782l8.865,0c0.764,0 1.406,0.261 1.927,0.782c0.522,0.522 0.782,1.164 0.782,1.927l0,4.569c1.737,-2.359 3.934,-4.161 6.592,-5.408c2.657,-1.246 5.744,-1.87 9.262,-1.87l4.562,0c0.763,0 1.394,0.25 1.894,0.75c0.499,0.499 0.749,1.131 0.749,1.894l-0,7.885c-0,0.764 -0.25,1.395 -0.749,1.895c-0.5,0.499 -1.131,0.749 -1.894,0.749l-8.574,-0c-3.506,-0 -6.244,0.985 -8.215,2.956c-1.971,1.971 -2.956,4.71 -2.956,8.216l-0,30.212c-0,0.763 -0.261,1.394 -0.783,1.894c-0.521,0.5 -1.163,0.749 -1.926,0.749l-9.536,0Z" style="fill:#11474d;fill-rule:nonzero;"/><path d="M400.576,183.566c-0.764,0 -1.395,-0.249 -1.895,-0.749c-0.499,-0.5 -0.749,-1.131 -0.749,-1.894l0,-6.322c0,-0.763 0.25,-1.394 0.749,-1.894c0.5,-0.499 1.131,-0.749 1.895,-0.749l2.853,-0c2.232,-0 3.903,-0.416 5.013,-1.248c1.111,-0.832 1.852,-1.963 2.226,-3.394c0.374,-1.431 0.56,-3.024 0.56,-4.777l0,-54.429c0,-0.763 0.25,-1.395 0.75,-1.894c0.499,-0.5 1.131,-0.75 1.894,-0.75l9.511,0c0.763,0 1.395,0.25 1.894,0.75c0.5,0.499 0.75,1.131 0.75,1.894l-0,54.697c-0,4.281 -0.771,7.971 -2.314,11.071c-1.542,3.099 -3.877,5.489 -7.005,7.169c-3.128,1.68 -7.108,2.519 -11.939,2.519l-4.193,0Zm12.801,-87.546c-0.763,0 -1.395,-0.25 -1.894,-0.749c-0.5,-0.5 -0.75,-1.131 -0.75,-1.894l0,-7.889c0,-0.763 0.25,-1.406 0.75,-1.927c0.499,-0.521 1.131,-0.782 1.894,-0.782l10.436,-0c0.763,-0 1.405,0.261 1.927,0.782c0.521,0.521 0.782,1.164 0.782,1.927l-0,7.889c-0,0.763 -0.261,1.394 -0.782,1.894c-0.522,0.499 -1.164,0.749 -1.927,0.749l-10.436,0Z" style="fill:#11474d;fill-rule:nonzero;"/><path d="M451.756,163.766c-3.788,0 -7.219,-0.748 -10.293,-2.244c-3.074,-1.497 -5.521,-3.511 -7.339,-6.042c-1.819,-2.531 -2.728,-5.381 -2.728,-8.55c0,-5.136 2.084,-9.215 6.251,-12.236c4.168,-3.022 9.657,-5.047 16.468,-6.076l15.056,-2.197l-0,-2.33c-0,-3.082 -0.775,-5.466 -2.324,-7.152c-1.549,-1.685 -4.182,-2.528 -7.899,-2.528c-2.682,-0 -4.845,0.528 -6.492,1.584c-1.647,1.057 -2.88,2.453 -3.7,4.187c-0.546,0.981 -1.377,1.472 -2.493,1.472l-8.642,-0c-0.82,-0 -1.436,-0.231 -1.847,-0.693c-0.412,-0.462 -0.602,-1.038 -0.573,-1.727c0.03,-1.176 0.497,-2.601 1.401,-4.275c0.904,-1.674 2.305,-3.315 4.201,-4.922c1.896,-1.608 4.344,-2.955 7.342,-4.041c2.999,-1.086 6.63,-1.63 10.892,-1.63c4.595,0 8.483,0.565 11.664,1.693c3.18,1.129 5.73,2.658 7.65,4.588c1.919,1.929 3.32,4.172 4.204,6.729c0.883,2.556 1.325,5.247 1.325,8.073l-0,34.574c-0,0.763 -0.25,1.394 -0.749,1.894c-0.5,0.5 -1.131,0.749 -1.895,0.749l-8.93,0c-0.763,0 -1.395,-0.249 -1.894,-0.749c-0.5,-0.5 -0.75,-1.131 -0.75,-1.894l0,-4.321c-0.939,1.38 -2.208,2.677 -3.807,3.893c-1.598,1.216 -3.551,2.215 -5.857,2.998c-2.307,0.782 -5.054,1.173 -8.242,1.173Zm3.737,-10.401c2.599,-0 4.941,-0.555 7.028,-1.664c2.087,-1.109 3.739,-2.828 4.957,-5.156c1.218,-2.329 1.827,-5.252 1.827,-8.77l-0,-2.265l-11.062,1.757c-4.345,0.657 -7.566,1.723 -9.663,3.197c-2.097,1.473 -3.145,3.266 -3.145,5.379c-0,1.646 0.481,3.022 1.442,4.13c0.961,1.108 2.211,1.951 3.749,2.527c1.537,0.576 3.16,0.865 4.867,0.865Z" style="fill:#11474d;fill-rule:nonzero;"/><path d="M517.206,163.766c-5.312,0 -9.958,-0.993 -13.939,-2.98c-3.98,-1.987 -7.092,-4.872 -9.334,-8.656c-2.243,-3.783 -3.467,-8.323 -3.673,-13.619c-0.073,-1.13 -0.11,-2.596 -0.11,-4.4c-0,-1.803 0.037,-3.285 0.11,-4.445c0.206,-5.339 1.423,-9.897 3.651,-13.674c2.227,-3.777 5.339,-6.658 9.334,-8.645c3.996,-1.987 8.649,-2.981 13.961,-2.981c4.662,0 8.657,0.651 11.987,1.953c3.33,1.302 6.053,2.948 8.169,4.94c2.117,1.991 3.704,4.073 4.761,6.246c1.058,2.172 1.623,4.144 1.697,5.915c0.073,0.764 -0.169,1.395 -0.727,1.895c-0.558,0.499 -1.197,0.749 -1.917,0.749l-9.628,-0c-0.763,-0 -1.34,-0.18 -1.729,-0.54c-0.39,-0.36 -0.768,-0.935 -1.135,-1.725c-1.123,-2.899 -2.59,-4.958 -4.403,-6.176c-1.813,-1.218 -4.097,-1.827 -6.851,-1.827c-3.646,0 -6.557,1.157 -8.733,3.47c-2.176,2.314 -3.344,5.964 -3.505,10.95c-0.116,2.805 -0.116,5.387 0,7.745c0.191,5.046 1.366,8.704 3.527,10.973c2.161,2.268 5.065,3.403 8.711,3.403c2.844,-0 5.157,-0.609 6.94,-1.827c1.783,-1.218 3.221,-3.277 4.314,-6.176c0.337,-0.79 0.708,-1.366 1.112,-1.725c0.405,-0.36 0.989,-0.54 1.752,-0.54l9.628,-0c0.72,-0 1.359,0.25 1.917,0.749c0.558,0.5 0.8,1.131 0.727,1.894c-0.074,1.346 -0.426,2.847 -1.057,4.505c-0.632,1.658 -1.612,3.347 -2.941,5.065c-1.329,1.719 -3.023,3.292 -5.081,4.718c-2.058,1.427 -4.546,2.578 -7.464,3.453c-2.919,0.876 -6.276,1.313 -10.071,1.313Z" style="fill:#11474d;fill-rule:nonzero;"/><path d="M552.51,162.666c-0.764,0 -1.395,-0.249 -1.894,-0.749c-0.5,-0.5 -0.75,-1.131 -0.75,-1.894l0,-72.813c0,-0.763 0.25,-1.395 0.75,-1.894c0.499,-0.5 1.13,-0.75 1.894,-0.75l8.93,0c0.763,0 1.395,0.25 1.894,0.75c0.5,0.499 0.75,1.131 0.75,1.894l-0,37.599l18.497,-17.473c0.669,-0.598 1.249,-1.059 1.741,-1.383c0.491,-0.324 1.257,-0.487 2.298,-0.487l10.268,0c0.689,0 1.258,0.224 1.706,0.672c0.448,0.448 0.672,1.017 0.672,1.707c0,0.294 -0.076,0.627 -0.23,1c-0.153,0.374 -0.434,0.699 -0.842,0.977l-22.646,21.254l25.396,27.324c0.685,0.702 1.028,1.331 1.028,1.888c-0,0.689 -0.224,1.258 -0.672,1.706c-0.448,0.448 -1.017,0.672 -1.707,0.672l-10.429,0c-1.1,0 -1.896,-0.166 -2.388,-0.498c-0.491,-0.332 -1.072,-0.789 -1.741,-1.372l-20.951,-22.161l-0,21.388c-0,0.763 -0.25,1.394 -0.75,1.894c-0.499,0.5 -1.131,0.749 -1.894,0.749l-8.93,0Z" style="fill:#11474d;fill-rule:nonzero;"/></g><circle cx="418.672" cy="88.85" r="10" style="fill:#11474d;"/></g><g><path d="M41.265,194.577c-0.23,0 -0.427,-0.081 -0.59,-0.244c-0.162,-0.163 -0.244,-0.359 -0.244,-0.59l0,-20.726c0,-0.235 0.082,-0.433 0.244,-0.596c0.163,-0.163 0.36,-0.244 0.59,-0.244l9.336,0c1.858,0 3.474,0.277 4.85,0.83c1.376,0.553 2.446,1.394 3.21,2.523c0.764,1.129 1.146,2.548 1.146,4.259c0,1.711 -0.382,3.113 -1.146,4.207c-0.764,1.094 -1.834,1.9 -3.21,2.419c-1.376,0.519 -2.992,0.778 -4.85,0.778l-3.032,0l0,6.55c0,0.231 -0.081,0.427 -0.244,0.59c-0.162,0.163 -0.361,0.244 -0.596,0.244l-5.464,0Zm6.174,-12.554l3.002,0c0.626,0 1.153,-0.184 1.583,-0.553c0.43,-0.369 0.645,-0.946 0.645,-1.733c0,-0.613 -0.167,-1.161 -0.502,-1.642c-0.334,-0.481 -0.91,-0.722 -1.726,-0.722l-3.002,0l0,4.65Z" style="fill:#11474d;fill-rule:nonzero;"/><path d="M66.243,194.577c-0.23,0 -0.427,-0.081 -0.59,-0.244c-0.162,-0.163 -0.244,-0.359 -0.244,-0.59l0,-20.726c0,-0.235 0.082,-0.433 0.244,-0.596c0.163,-0.163 0.36,-0.244 0.59,-0.244l15.678,0c0.235,0 0.434,0.081 0.596,0.244c0.163,0.163 0.244,0.361 0.244,0.596l0,3.756c0,0.231 -0.081,0.427 -0.244,0.59c-0.162,0.163 -0.361,0.244 -0.596,0.244l-9.894,0l0,3.168l9.19,0c0.235,0 0.434,0.081 0.596,0.244c0.163,0.163 0.244,0.361 0.244,0.596l0,3.47c0,0.231 -0.081,0.427 -0.244,0.59c-0.162,0.163 -0.361,0.244 -0.596,0.244l-9.19,0l0,3.228l10.15,0c0.235,0 0.434,0.081 0.596,0.244c0.163,0.163 0.244,0.361 0.244,0.596l0,3.756c0,0.231 -0.081,0.427 -0.244,0.59c-0.162,0.163 -0.361,0.244 -0.596,0.244l-15.934,0Z" style="fill:#11474d;fill-rule:nonzero;"/><path d="M98.661,194.897c-2.03,0 -3.799,-0.319 -5.305,-0.957c-1.506,-0.638 -2.689,-1.604 -3.55,-2.899c-0.86,-1.295 -1.331,-2.901 -1.413,-4.82c-0.021,-0.891 -0.032,-1.813 -0.032,-2.766c0,-0.953 0.011,-1.893 0.032,-2.818c0.082,-1.897 0.552,-3.498 1.412,-4.801c0.86,-1.303 2.049,-2.292 3.565,-2.967c1.517,-0.675 3.281,-1.012 5.291,-1.012c2.011,0 3.775,0.337 5.291,1.012c1.517,0.675 2.711,1.664 3.581,2.967c0.871,1.303 1.336,2.904 1.396,4.801c0.043,0.925 0.064,1.865 0.064,2.818c0,0.953 -0.021,1.875 -0.064,2.766c-0.077,1.919 -0.547,3.525 -1.41,4.82c-0.862,1.295 -2.047,2.261 -3.553,2.899c-1.506,0.638 -3.274,0.957 -5.305,0.957Zm0,-5.43c0.916,0 1.659,-0.273 2.227,-0.819c0.569,-0.546 0.87,-1.417 0.903,-2.613c0.043,-0.925 0.064,-1.82 0.064,-2.684c0,-0.864 -0.021,-1.741 -0.064,-2.632c-0.025,-0.797 -0.173,-1.45 -0.444,-1.958c-0.27,-0.508 -0.633,-0.881 -1.089,-1.118c-0.455,-0.237 -0.987,-0.356 -1.597,-0.356c-0.588,0 -1.114,0.119 -1.578,0.356c-0.464,0.237 -0.831,0.61 -1.102,1.118c-0.27,0.508 -0.42,1.161 -0.45,1.958c-0.021,0.891 -0.032,1.768 -0.032,2.632c0,0.864 0.011,1.759 0.032,2.684c0.051,1.196 0.357,2.067 0.919,2.613c0.562,0.546 1.299,0.819 2.211,0.819Z" style="fill:#11474d;fill-rule:nonzero;"/><path d="M116.001,194.577c-0.23,0 -0.427,-0.081 -0.59,-0.244c-0.162,-0.163 -0.244,-0.359 -0.244,-0.59l0,-20.726c0,-0.235 0.082,-0.433 0.244,-0.596c0.163,-0.163 0.36,-0.244 0.59,-0.244l9.336,0c1.858,0 3.474,0.277 4.85,0.83c1.376,0.553 2.446,1.394 3.21,2.523c0.764,1.129 1.146,2.548 1.146,4.259c0,1.711 -0.382,3.113 -1.146,4.207c-0.764,1.094 -1.834,1.9 -3.21,2.419c-1.376,0.519 -2.992,0.778 -4.85,0.778l-3.032,0l0,6.55c0,0.231 -0.081,0.427 -0.244,0.59c-0.162,0.163 -0.361,0.244 -0.596,0.244l-5.464,0Zm6.174,-12.554l3.002,0c0.626,0 1.153,-0.184 1.583,-0.553c0.43,-0.369 0.645,-0.946 0.645,-1.733c0,-0.613 -0.167,-1.161 -0.502,-1.642c-0.334,-0.481 -0.91,-0.722 -1.726,-0.722l-3.002,0l0,4.65Z" style="fill:#11474d;fill-rule:nonzero;"/><path d="M140.979,194.577c-0.23,0 -0.427,-0.081 -0.59,-0.244c-0.162,-0.163 -0.244,-0.359 -0.244,-0.59l0,-20.732c0,-0.231 0.082,-0.427 0.244,-0.59c0.163,-0.163 0.36,-0.244 0.59,-0.244l5.314,0c0.231,0 0.428,0.081 0.59,0.244c0.163,0.163 0.244,0.359 0.244,0.59l0,15.876l9.272,0c0.235,0 0.434,0.081 0.596,0.244c0.163,0.163 0.244,0.361 0.244,0.596l0,4.016c0,0.231 -0.081,0.427 -0.244,0.59c-0.162,0.163 -0.361,0.244 -0.596,0.244l-15.42,0Z" style="fill:#11474d;fill-rule:nonzero;"/><path d="M163.423,194.577c-0.23,0 -0.427,-0.081 -0.59,-0.244c-0.162,-0.163 -0.244,-0.359 -0.244,-0.59l0,-20.726c0,-0.235 0.082,-0.433 0.244,-0.596c0.163,-0.163 0.36,-0.244 0.59,-0.244l15.678,0c0.235,0 0.434,0.081 0.596,0.244c0.163,0.163 0.244,0.361 0.244,0.596l0,3.756c0,0.231 -0.081,0.427 -0.244,0.59c-0.162,0.163 -0.361,0.244 -0.596,0.244l-9.894,0l0,3.168l9.19,0c0.235,0 0.434,0.081 0.596,0.244c0.163,0.163 0.244,0.361 0.244,0.596l0,3.47c0,0.231 -0.081,0.427 -0.244,0.59c-0.162,0.163 -0.361,0.244 -0.596,0.244l-9.19,0l0,3.228l10.15,0c0.235,0 0.434,0.081 0.596,0.244c0.163,0.163 0.244,0.361 0.244,0.596l0,3.756c0,0.231 -0.081,0.427 -0.244,0.59c-0.162,0.163 -0.361,0.244 -0.596,0.244l-15.934,0Z" style="fill:#11474d;fill-rule:nonzero;"/><path d="M196.461,194.577c-0.23,0 -0.427,-0.081 -0.59,-0.244c-0.162,-0.163 -0.244,-0.359 -0.244,-0.59l0,-20.726c0,-0.235 0.082,-0.433 0.244,-0.596c0.163,-0.163 0.36,-0.244 0.59,-0.244l9.336,0c1.858,0 3.474,0.277 4.85,0.83c1.376,0.553 2.446,1.394 3.21,2.523c0.764,1.129 1.146,2.548 1.146,4.259c0,1.711 -0.382,3.113 -1.146,4.207c-0.764,1.094 -1.834,1.9 -3.21,2.419c-1.376,0.519 -2.992,0.778 -4.85,0.778l-3.032,0l0,6.55c0,0.231 -0.081,0.427 -0.244,0.59c-0.162,0.163 -0.361,0.244 -0.596,0.244l-5.464,0Zm6.174,-12.554l3.002,0c0.626,0 1.153,-0.184 1.583,-0.553c0.43,-0.369 0.645,-0.946 0.645,-1.733c0,-0.613 -0.167,-1.161 -0.502,-1.642c-0.334,-0.481 -0.91,-0.722 -1.726,-0.722l-3.002,0l0,4.65Z" style="fill:#11474d;fill-rule:nonzero;"/><path d="M217.783,194.577c-0.188,0 -0.35,-0.068 -0.487,-0.205c-0.136,-0.137 -0.205,-0.299 -0.205,-0.487c0,-0.089 0.013,-0.172 0.038,-0.248l7.316,-20.482c0.068,-0.231 0.211,-0.451 0.427,-0.662c0.217,-0.211 0.523,-0.316 0.917,-0.316l5.846,0c0.395,0 0.701,0.105 0.917,0.316c0.217,0.211 0.359,0.431 0.427,0.662l7.316,20.482c0.026,0.076 0.038,0.159 0.038,0.248c0,0.188 -0.068,0.35 -0.205,0.487c-0.136,0.137 -0.299,0.205 -0.487,0.205l-4.93,0c-0.369,0 -0.637,-0.085 -0.805,-0.254c-0.167,-0.169 -0.281,-0.331 -0.341,-0.486l-0.996,-2.676l-7.714,0l-0.996,2.676c-0.056,0.155 -0.164,0.317 -0.325,0.486c-0.16,0.169 -0.434,0.254 -0.821,0.254l-4.93,0Zm8.542,-8.846l4.774,0l-2.4,-7.2l-2.374,7.2Z" style="fill:#11474d;fill-rule:nonzero;"/><path d="M246.185,194.577c-0.23,0 -0.427,-0.081 -0.59,-0.244c-0.162,-0.163 -0.244,-0.359 -0.244,-0.59l0,-20.726c0,-0.235 0.082,-0.433 0.244,-0.596c0.163,-0.163 0.36,-0.244 0.59,-0.244l9.094,0c2.916,0 5.201,0.663 6.855,1.99c1.654,1.327 2.481,3.173 2.481,5.54c0,1.481 -0.344,2.747 -1.033,3.797c-0.688,1.05 -1.582,1.869 -2.681,2.457l4.164,7.572c0.064,0.128 0.096,0.245 0.096,0.352c0,0.188 -0.068,0.35 -0.205,0.487c-0.136,0.137 -0.299,0.205 -0.487,0.205l-5.402,0c-0.41,0 -0.718,-0.104 -0.924,-0.311c-0.205,-0.207 -0.346,-0.392 -0.422,-0.553l-3.19,-6.58l-2.302,0l0,6.61c0,0.231 -0.081,0.427 -0.244,0.59c-0.162,0.163 -0.361,0.244 -0.596,0.244l-5.204,0Zm6.044,-12.744l3.02,0c0.747,0 1.305,-0.205 1.674,-0.616c0.37,-0.411 0.554,-0.931 0.554,-1.562c0,-0.631 -0.176,-1.169 -0.528,-1.614c-0.352,-0.445 -0.918,-0.668 -1.7,-0.668l-3.02,0l0,4.46Z" style="fill:#11474d;fill-rule:nonzero;"/><path d="M276.401,194.577c-0.23,0 -0.427,-0.081 -0.59,-0.244c-0.162,-0.163 -0.244,-0.359 -0.244,-0.59l0,-15.616l-5.504,0c-0.23,0 -0.427,-0.081 -0.59,-0.244c-0.162,-0.163 -0.244,-0.359 -0.244,-0.59l0,-4.276c0,-0.235 0.082,-0.433 0.244,-0.596c0.163,-0.163 0.36,-0.244 0.59,-0.244l17.984,0c0.235,0 0.434,0.081 0.596,0.244c0.163,0.163 0.244,0.361 0.244,0.596l0,4.276c0,0.231 -0.081,0.427 -0.244,0.59c-0.162,0.163 -0.361,0.244 -0.596,0.244l-5.498,0l0,15.616c0,0.231 -0.081,0.427 -0.244,0.59c-0.162,0.163 -0.361,0.244 -0.596,0.244l-5.308,0Z" style="fill:#11474d;fill-rule:nonzero;"/><path d="M295.199,194.577c-0.23,0 -0.427,-0.081 -0.59,-0.244c-0.162,-0.163 -0.244,-0.359 -0.244,-0.59l0,-20.726c0,-0.235 0.082,-0.433 0.244,-0.596c0.163,-0.163 0.36,-0.244 0.59,-0.244l4.234,0c0.387,0 0.668,0.088 0.844,0.264c0.176,0.176 0.292,0.311 0.348,0.406l6.608,10.586l0,-10.416c0,-0.235 0.082,-0.433 0.244,-0.596c0.163,-0.163 0.36,-0.244 0.59,-0.244l4.814,0c0.235,0 0.434,0.081 0.596,0.244c0.163,0.163 0.244,0.361 0.244,0.596l0,20.72c0,0.231 -0.081,0.428 -0.244,0.593c-0.162,0.165 -0.359,0.247 -0.59,0.247l-4.24,0c-0.386,0 -0.667,-0.092 -0.841,-0.277c-0.174,-0.185 -0.291,-0.316 -0.351,-0.393l-6.602,-10.002l0,9.838c0,0.231 -0.081,0.427 -0.244,0.59c-0.162,0.163 -0.361,0.244 -0.596,0.244l-4.814,0Z" style="fill:#11474d;fill-rule:nonzero;"/><path d="M321.423,194.577c-0.23,0 -0.427,-0.081 -0.59,-0.244c-0.162,-0.163 -0.244,-0.359 -0.244,-0.59l0,-20.726c0,-0.235 0.082,-0.433 0.244,-0.596c0.163,-0.163 0.36,-0.244 0.59,-0.244l15.678,0c0.235,0 0.434,0.081 0.596,0.244c0.163,0.163 0.244,0.361 0.244,0.596l0,3.756c0,0.231 -0.081,0.427 -0.244,0.59c-0.162,0.163 -0.361,0.244 -0.596,0.244l-9.894,0l0,3.168l9.19,0c0.235,0 0.434,0.081 0.596,0.244c0.163,0.163 0.244,0.361 0.244,0.596l0,3.47c0,0.231 -0.081,0.427 -0.244,0.59c-0.162,0.163 -0.361,0.244 -0.596,0.244l-9.19,0l0,3.228l10.15,0c0.235,0 0.434,0.081 0.596,0.244c0.163,0.163 0.244,0.361 0.244,0.596l0,3.756c0,0.231 -0.081,0.427 -0.244,0.59c-0.162,0.163 -0.361,0.244 -0.596,0.244l-15.934,0Z" style="fill:#11474d;fill-rule:nonzero;"/><path d="M345.197,194.577c-0.23,0 -0.427,-0.081 -0.59,-0.244c-0.162,-0.163 -0.244,-0.359 -0.244,-0.59l0,-20.726c0,-0.235 0.082,-0.433 0.244,-0.596c0.163,-0.163 0.36,-0.244 0.59,-0.244l9.094,0c2.916,0 5.201,0.663 6.855,1.99c1.654,1.327 2.481,3.173 2.481,5.54c0,1.481 -0.344,2.747 -1.033,3.797c-0.688,1.05 -1.582,1.869 -2.681,2.457l4.164,7.572c0.064,0.128 0.096,0.245 0.096,0.352c0,0.188 -0.068,0.35 -0.205,0.487c-0.136,0.137 -0.299,0.205 -0.487,0.205l-5.402,0c-0.41,0 -0.718,-0.104 -0.924,-0.311c-0.205,-0.207 -0.346,-0.392 -0.422,-0.553l-3.19,-6.58l-2.302,0l0,6.61c0,0.231 -0.081,0.427 -0.244,0.59c-0.162,0.163 -0.361,0.244 -0.596,0.244l-5.204,0Zm6.044,-12.744l3.02,0c0.747,0 1.305,-0.205 1.674,-0.616c0.37,-0.411 0.554,-0.931 0.554,-1.562c0,-0.631 -0.176,-1.169 -0.528,-1.614c-0.352,-0.445 -0.918,-0.668 -1.7,-0.668l-3.02,0l0,4.46Z" style="fill:#11474d;fill-rule:nonzero;"/><path d="M378.707,194.897c-2.248,0 -4.109,-0.312 -5.583,-0.936c-1.474,-0.624 -2.583,-1.443 -3.327,-2.456c-0.744,-1.013 -1.137,-2.089 -1.18,-3.226c0,-0.188 0.069,-0.35 0.205,-0.487c0.137,-0.137 0.301,-0.205 0.493,-0.205l5.06,0c0.318,0 0.561,0.051 0.73,0.153c0.17,0.102 0.343,0.238 0.52,0.409c0.19,0.233 0.417,0.453 0.683,0.658c0.266,0.205 0.598,0.367 0.996,0.484c0.398,0.117 0.866,0.176 1.403,0.176c0.982,0 1.74,-0.136 2.275,-0.408c0.536,-0.272 0.803,-0.641 0.803,-1.106c0,-0.368 -0.146,-0.67 -0.44,-0.907c-0.293,-0.237 -0.778,-0.45 -1.456,-0.641c-0.677,-0.191 -1.599,-0.386 -2.766,-0.586c-1.653,-0.283 -3.074,-0.698 -4.264,-1.247c-1.189,-0.549 -2.1,-1.287 -2.732,-2.216c-0.632,-0.929 -0.948,-2.075 -0.948,-3.439c0,-1.383 0.388,-2.606 1.163,-3.669c0.776,-1.063 1.86,-1.894 3.253,-2.493c1.394,-0.599 3.027,-0.898 4.9,-0.898c1.536,0 2.895,0.201 4.076,0.603c1.182,0.402 2.177,0.929 2.986,1.581c0.81,0.652 1.426,1.351 1.85,2.097c0.424,0.746 0.647,1.463 0.668,2.151c0,0.184 -0.066,0.345 -0.199,0.484c-0.132,0.139 -0.29,0.208 -0.473,0.208l-5.32,0c-0.262,0 -0.482,-0.043 -0.66,-0.128c-0.177,-0.085 -0.348,-0.221 -0.512,-0.408c-0.11,-0.287 -0.376,-0.551 -0.796,-0.794c-0.42,-0.243 -0.96,-0.364 -1.62,-0.364c-0.729,0 -1.287,0.123 -1.675,0.369c-0.387,0.246 -0.581,0.606 -0.581,1.079c0,0.316 0.12,0.594 0.36,0.835c0.24,0.241 0.658,0.452 1.254,0.634c0.596,0.182 1.426,0.371 2.49,0.567c2.034,0.304 3.673,0.734 4.917,1.289c1.245,0.555 2.154,1.283 2.726,2.184c0.573,0.901 0.859,2.024 0.859,3.371c0,1.509 -0.438,2.808 -1.314,3.897c-0.876,1.089 -2.076,1.925 -3.6,2.509c-1.524,0.584 -3.265,0.876 -5.224,0.876Z" style="fill:#11474d;fill-rule:nonzero;"/></g></g></svg>
