<?xml version="1.0" encoding="UTF-8" standalone="no"?><!DOCTYPE svg PUBLIC "-//W3C//DTD SVG 1.1//EN" "http://www.w3.org/Graphics/SVG/1.1/DTD/svg11.dtd"><svg width="100%" height="100%" viewBox="0 0 2371 2371" version="1.1" xmlns="http://www.w3.org/2000/svg" xmlns:xlink="http://www.w3.org/1999/xlink" xml:space="preserve" xmlns:serif="http://www.serif.com/" style="fill-rule:evenodd;clip-rule:evenodd;stroke-linejoin:round;stroke-miterlimit:2;"><g id="Background"></g><rect id="Artboard1" x="0" y="0" width="2370.71" height="2370.71" style="fill:none;"/><g id="Illustration"><g><g><path d="M2129.62,457.005c-0,-67.038 -39.177,-123.039 -88.217,-125.088l-1807.37,-75.533c-2.026,-0.084 -3.974,-0.109 -5.976,-0.07c-37.951,0.734 -70.608,23.38 -90.692,58.156c-12.668,21.935 -19.423,48.697 -19.423,77.881l-0,1687.45c-0,9.728 0.194,19.115 1.761,28.135c0.392,2.255 0.516,4.471 0.999,6.675c1.935,8.817 4.435,17.209 7.738,25.106c14.044,33.583 39.671,58.09 70.891,66.845c11.037,3.095 22.725,4.434 34.872,3.296l1395.53,-130.525l-0.011,-0l411.692,-38.837c49.038,-4.595 88.21,-62.879 88.21,-129.917l-0,-1453.57l-0.002,-0Z" style="fill:#b7c0ce;fill-rule:nonzero;"/><g><path d="M2091.4,330.81l-1813.95,-75.585c-64.868,-2.703 -117.88,58.281 -117.88,136.234l-0,1690.24c-0,77.953 53.013,136.192 117.88,130.13l1813.95,-169.518c49.219,-4.6 88.84,-62.748 88.84,-129.911l-0,-1456.27c-0,-67.163 -39.62,-123.26 -88.84,-125.311Z" style="fill:#fff;fill-rule:nonzero;"/><path d="M277.454,2167.12c-44.021,3.978 -80.034,-35.756 -80.034,-88.596l-0,-1685.85c-0,-52.84 36.012,-94.439 80.034,-92.74l1813.95,69.985c33.492,1.292 60.61,39.556 60.61,85.303l-0,1459.54c-0,45.747 -27.118,85.415 -60.61,88.441l-1813.95,163.918Z" style="fill:#f4f7fa;fill-rule:nonzero;"/><path d="M2091.4,330.81l-1813.95,-75.585c-64.867,-2.703 -117.881,58.281 -117.881,136.234l-0,101.25l2020.67,50.647l-0,-87.235c-0.001,-67.163 -39.621,-123.26 -88.842,-125.311Z" style="fill:#d8dee8;fill-rule:nonzero;"/><path d="M368.532,380.44c-0,22.882 -16.939,40.974 -37.889,40.406c-21.011,-0.569 -38.089,-19.68 -38.089,-42.683c-0,-23.003 17.078,-41.09 38.089,-40.4c20.95,0.689 37.889,19.795 37.889,42.677Z" style="fill:#fff;fill-rule:nonzero;"/><path d="M500.042,384.382c-0,22.673 -16.63,40.603 -37.198,40.046c-20.627,-0.559 -37.393,-19.49 -37.393,-42.281c-0,-22.792 16.766,-40.718 37.393,-40.04c20.568,0.675 37.198,19.602 37.198,42.275Z" style="fill:#fff;fill-rule:nonzero;"/><path d="M629.17,388.252c-0,22.468 -16.33,40.239 -36.527,39.692c-20.254,-0.549 -36.716,-19.303 -36.716,-41.887c-0,-22.584 16.462,-40.352 36.716,-39.687c20.197,0.663 36.527,19.414 36.527,41.882Z" style="fill:#fff;fill-rule:nonzero;"/><path d="M2076.49,1736.1l-1779.6,123.141l-0,-71.431l1779.6,-114.351l-0,62.641Z" style="fill:#d8dee8;fill-rule:nonzero;"/><path d="M2076.49,1889.76l-1779.6,144.706l-0,-71.431l1779.6,-135.916l-0,62.641Z" style="fill:#d8dee8;fill-rule:nonzero;"/><g opacity="0.3"><path d="M1412.9,1160.65c-210.28,-373.105 -581.557,-245.122 -821.347,-668.046c-43.66,-77.004 -73.358,-155.593 -93.761,-228.197l-220.34,-9.181c-64.867,-2.703 -117.881,58.281 -117.881,136.234l-0,1690.24c-0,77.953 53.015,136.191 117.881,130.129l1400.45,-130.876c-39.956,-69.364 -76.942,-147.574 -108.318,-235.756c-120.969,-339.985 -31.28,-462.028 -156.689,-684.543Z" style="fill:#fff;fill-rule:nonzero;"/></g></g></g><g><g><path d="M1944.05,1893.27c-166.909,19.171 -306.926,-107.362 -306.926,-282.658c-0,-175.296 140.017,-325.236 306.926,-333.968c161.442,-8.446 288.936,119.14 288.936,284.162c-0,165.022 -127.493,313.921 -288.936,332.464Z" style="fill:url(#_Linear1);fill-rule:nonzero;"/><path d="M1964.26,1899.39c-166.661,19.194 -306.47,-107.213 -306.47,-282.379c-0,-175.166 139.809,-325.027 306.47,-333.792c161.205,-8.478 288.511,118.984 288.511,283.885c-0,164.902 -127.306,313.721 -288.511,332.286Z" style="fill:url(#_Linear2);fill-rule:nonzero;"/><path d="M2233.41,1568.73c-0,154.086 -118.665,292.408 -269.158,309.415c-155.239,17.543 -284.723,-99.959 -284.723,-262.956c-0,-162.997 129.485,-302.221 284.723,-310.721c150.494,-8.239 269.158,110.176 269.158,264.262Z" style="fill:#fff;fill-rule:nonzero;"/><g><g><clipPath id="_clip3"><path d="M2213.98,1570.36c-0,142.962 -110.222,271.074 -249.726,286.538c-143.572,15.915 -263.069,-92.924 -263.069,-243.525c-0,-150.601 119.497,-279.487 263.069,-287.657c139.504,-7.939 249.726,101.682 249.726,244.644Z"/></clipPath><g clip-path="url(#_clip3)"><path d="M1930.94,1394.99c-49.218,2.883 -96.079,35.327 -116.934,76.48c-25.169,49.668 8.428,70.128 -7.969,148.558c-15.118,72.313 -50.488,87.946 -44.636,133.916c6.408,50.33 54.666,77.662 73.69,88.436c85.259,48.288 217.457,31.923 284.116,-48.45c5.553,-6.695 51.357,-61.922 39.007,-107.138c-11.06,-40.492 -58.576,-36.083 -68.438,-78.417c-8.5,-36.494 24.023,-51.671 20.931,-105.419c-0.605,-10.516 -3.469,-60.305 -39.687,-80.119c-24.172,-13.224 -50.779,-6.368 -60.542,-3.315c-11.73,-8.616 -40.338,-26.828 -79.538,-24.532Z" style="fill:url(#_Linear4);fill-rule:nonzero;"/><path d="M1679.53,1814.36c-0,-0 250.459,-175.18 553.881,-57.347c-0,-0 -38.274,130.532 -269.158,163.85c-242.243,34.957 -284.723,-106.503 -284.723,-106.503Z" style="fill:url(#_Linear5);fill-rule:nonzero;"/><path d="M1920.31,1594.99l-9.311,72.299c-3.178,24.681 -19.486,46.686 -42.204,56.862l-76.199,34.131c-0,-0 145.471,57.16 327.022,-33.093l-82.468,-21.508c-23.501,-6.806 -39.54,-28.253 -40.565,-54.344l-2.38,-60.546l-73.895,6.199Z" style="fill:url(#_Linear6);fill-rule:nonzero;"/><path d="M2032.77,1522.81c-0,60.012 -34.967,127.64 -78.447,131.562c-43.867,3.956 -79.716,-58.327 -79.716,-119.31c-0,-60.984 35.848,-96.776 79.716,-99.757c43.48,-2.956 78.447,27.492 78.447,87.505Z" style="fill:url(#_Linear7);fill-rule:nonzero;"/><path d="M1989.11,1471.82c-23.609,2.966 -59.45,11.455 -84.335,40.267c-41.882,48.49 -21.976,118.456 -40.621,124.33c-16.631,5.239 -42.427,-43.642 -42.01,-99.78c0.349,-47.014 15.992,-103.484 56.63,-120.104c23.811,-9.737 30.814,3.049 107.277,5.687c44.355,1.53 26.972,23.303 36.943,30.267c44.173,30.856 38.591,143.125 14.822,146.579c-11.286,1.64 -26.897,-26.314 -48.706,-127.246Z" style="fill:url(#_Linear8);fill-rule:nonzero;"/></g></g></g></g><g><path d="M1209.16,1926.86c-176.025,19.899 -323.734,-109.892 -323.734,-289.951c-0,-180.06 147.709,-334.164 323.734,-343.238c170.205,-8.774 304.58,122.122 304.58,291.528c-0,169.406 -134.375,322.42 -304.58,341.661Z" style="fill:url(#_Linear9);fill-rule:nonzero;"/><path d="M1230.47,1933.11c-175.757,19.923 -323.24,-109.736 -323.24,-289.657c-0,-179.921 147.483,-333.943 323.24,-343.052c169.948,-8.808 304.121,121.957 304.121,291.236c-0,169.279 -134.173,322.208 -304.121,341.473Z" style="fill:url(#_Linear10);fill-rule:nonzero;"/><path d="M1514.2,1593.32c-0,158.18 -125.069,300.323 -283.726,317.971c-163.709,18.21 -300.297,-102.316 -300.297,-269.734c-0,-167.418 136.588,-310.507 300.297,-319.34c158.657,-8.56 283.726,112.923 283.726,271.103Z" style="fill:#fff;fill-rule:nonzero;"/><g><g><clipPath id="_clip11"><path d="M1493.72,1595.01c-0,146.763 -116.174,278.414 -263.247,294.462c-151.404,16.52 -277.452,-95.121 -277.452,-249.804c-0,-154.683 126.048,-287.146 277.452,-295.635c147.073,-8.246 263.247,104.215 263.247,250.977Z"/></clipPath><g clip-path="url(#_clip11)"><path d="M921.011,2078.89c-24.44,-62.121 10.041,-167.152 31.721,-214.909c62.995,-138.773 178.012,-147.237 271.614,-154.125c91.341,-6.721 178.954,-13.168 242.727,87.636c41.504,65.604 79.56,187.101 54.192,253.774c-26.73,70.253 -101.223,20.233 -280.001,27.606c-199.303,8.219 -289.796,77.435 -320.253,0.018Z" style="fill:url(#_Linear12);fill-rule:nonzero;"/><path d="M1310.58,1721.18c-0,16.99 -41.227,38.829 -92.251,40.626c-51.21,1.803 -92.861,-17.252 -92.861,-34.354c-0,-17.102 41.651,-10.854 92.861,-12.572c51.024,-1.712 92.251,-10.69 92.251,6.3Z" style="fill:url(#_Linear13);fill-rule:nonzero;"/><path d="M1184.25,1606.41c-14.114,0.418 18.445,98.817 -32.867,114.187c-4.973,1.49 -5.79,8.213 -1.266,10.515c13.794,7.019 39.594,15.611 81.807,14.148c27.354,-0.948 47.329,-12.01 57.692,-19.365c3.542,-2.514 3.189,-7.834 -0.603,-9.674c-15.703,-7.618 -37.529,-32.823 -31.012,-109.461l-73.751,-0.35Z" style="fill:url(#_Linear14);fill-rule:nonzero;"/><path d="M1141.33,1506.46c0.212,1.244 4.49,92.011 25.21,136.756c5.942,12.831 35.379,10.348 54.397,8.188c16.498,-1.874 42.321,3.362 49.585,-8.293c29.166,-46.797 24.226,-160.337 24.226,-160.337c-0,-0 -14.941,-37.465 -76.374,-34.952c-61.703,2.525 -77.044,58.638 -77.044,58.638Z" style="fill:url(#_Linear15);fill-rule:nonzero;"/><path d="M1155.81,1554.87c-0,-0 -12.943,-14.713 -25.15,-16.391c-12.217,-1.679 -20.181,30.225 -3.508,50.365c16.653,20.116 35.879,2.475 35.879,2.475l-7.221,-36.449Z" style="fill:url(#_Linear16);fill-rule:nonzero;"/><path d="M1281.31,1551.38c-0,-0 12.816,-15.348 24.881,-17.674c12.055,-2.325 19.902,28.909 3.464,49.85c-16.458,20.966 -35.506,4.529 -35.506,4.529l7.161,-36.705Z" style="fill:url(#_Linear17);fill-rule:nonzero;"/><path d="M1145.68,1554.02c1.63,2.95 3.497,5.686 4.758,5.322c5.229,-1.511 -14.951,-52.039 3.638,-70.401c9.6,-9.483 20.407,-1.338 59.639,-4.115c39.397,-2.789 49.458,-12.505 61.336,-5.557c10.813,6.325 20.483,24.909 12.472,80.907c2.23,-0.581 4.461,-1.162 6.69,-1.742c-3.004,-18.186 0.275,-29.803 4.022,-37.168c2.733,-5.372 7.678,-12.335 7.293,-22.194c-0.238,-6.11 -2.25,-6.333 -2.582,-11.333c-0.97,-14.661 15.655,-19.027 16.456,-33.547c0.617,-11.177 -8.94,-13.485 -7.193,-25.197c1.486,-9.959 8.947,-11.985 7.767,-19.126c-1.274,-7.708 -11.271,-13.241 -18.293,-15.093c-7.165,-1.89 -9.756,0.442 -13.959,-2.384c-6.795,-4.569 -3.529,-13.018 -8.441,-16.021c-8.751,-5.35 -26.165,17.159 -37.432,11.894c-6.826,-3.19 -4.197,-13.21 -10.241,-15.498c-11.686,-4.423 -32.359,28.934 -40.684,24.749c-3.987,-2.005 -0.142,-10.11 -5.734,-15.894c-6.57,-6.795 -22.355,-6.445 -29.557,1.057c-6.717,6.998 -1.013,15.054 -8.124,23.894c-6.388,7.941 -13.771,4.9 -20.989,11.315c-12.27,10.906 -7.997,34.847 -6.473,43.389c5.246,29.398 21.569,34.952 17.907,55.17c-0.937,5.173 -3.118,10.957 -1.561,19.321c1.527,8.202 5.798,14.3 9.285,18.252Z" style="fill:url(#_Linear18);fill-rule:nonzero;"/><g opacity="0.3"><path d="M1295.51,1486.48c-1.432,-14.393 9.665,-21.382 7.802,-31.627c-1.497,-8.23 -10.784,-15.442 -19.513,-16.822c-18.639,-2.948 -30.719,24.977 -49.294,22.437c-14.38,-1.967 -12.785,-19.459 -29.032,-26.096c-25.789,-10.535 -52.871,24.092 -70.079,15.087c-5.176,-2.708 -10.411,-9.864 -10.784,-29.608c-9.885,11.592 -6.006,33.367 -4.567,41.428c5.246,29.398 21.57,34.952 17.908,55.17c-0.937,5.173 -3.118,10.957 -1.561,19.321c1.528,8.204 5.798,14.303 9.285,18.254c1.63,2.95 3.497,5.686 4.758,5.322c5.229,-1.511 -14.951,-52.039 3.638,-70.401c9.6,-9.483 20.407,-1.338 59.639,-4.115c39.397,-2.789 49.458,-12.505 61.336,-5.557c10.813,6.325 20.483,24.909 12.472,80.907c2.23,-0.581 4.461,-1.162 6.69,-1.742c-3.004,-18.186 0.275,-29.804 4.022,-37.168c1.126,-2.214 2.626,-4.703 3.975,-7.549c-0.285,-4.798 -1.095,-10.052 -2.794,-15.553c-1.991,-6.452 -3.441,-7.058 -3.901,-11.688Z" style="fill:url(#_Linear19);fill-rule:nonzero;"/></g></g></g></g></g><g><path d="M1206.99,983.636c-204.062,8.057 -375.554,-157.932 -375.554,-370.282c-0,-212.35 171.492,-380.649 375.554,-375.34c197,5.125 352.31,171.232 352.31,370.439c-0,199.207 -155.311,367.406 -352.31,375.183Z" style="fill:url(#_Linear20);fill-rule:nonzero;"/><path d="M1232.49,983.445c-203.69,8.048 -374.868,-157.789 -374.868,-369.944c-0,-212.155 171.178,-380.301 374.868,-375.002c196.643,5.117 351.674,171.072 351.674,370.1c-0,199.028 -155.031,367.076 -351.674,374.846Z" style="fill:url(#_Linear21);fill-rule:nonzero;"/><path d="M1560.61,608.759c-0,185.996 -144.532,342.16 -328.121,348.999c-189.717,7.067 -348.223,-147.045 -348.223,-344.436c-0,-197.391 158.506,-353.642 348.223,-349.134c183.589,4.361 328.121,158.575 328.121,344.571Z" style="fill:#fff;fill-rule:nonzero;"/><g><g><clipPath id="_clip22"><path d="M1536.96,608.918c-0,172.588 -134.274,317.196 -304.467,323.151c-175.446,6.139 -321.699,-136.571 -321.699,-318.927c-0,-182.356 146.252,-327.039 321.699,-323.267c170.193,3.659 304.467,146.456 304.467,319.043Z"/></clipPath><g clip-path="url(#_clip22)"><path d="M1552.77,1047.6c-32.816,45.907 -103.263,17.942 -315.521,21.822c-225.8,4.135 -305.818,34.963 -342.214,-14.002c-33.591,-45.17 -5.758,-208.613 34.221,-254.477c45.273,-51.901 109.947,-68.27 193.456,-74.692c32.638,-2.513 68.137,-3.49 106.453,-4.5c36.552,-0.949 68.986,-1.817 98.128,-1.235c72.23,1.439 124.204,11.63 167.724,50.735c56.849,51.074 93.037,227 57.753,276.349Z" style="fill:url(#_Linear23);fill-rule:nonzero;"/><path d="M1327.29,720.515c-0.167,3.184 -0.607,6.324 -1.34,9.275c-11.193,44.614 -35.703,137.969 -60.213,202.623c-16.92,44.664 -33.858,75.631 -46.369,67.312c-9.803,-6.505 -21.555,-29.415 -33.547,-59.59c-24.313,-61.189 -49.6,-152.39 -61.648,-197.787c-1.357,-5.057 -1.782,-10.748 -1.463,-16.1c32.638,-2.513 68.137,-3.49 106.453,-4.5c36.552,-0.946 68.986,-1.815 98.127,-1.233Z" style="fill:#f9f9f9;fill-rule:nonzero;"/><path d="M1173.64,618.853c-0,-0 14.471,104.468 -5.543,114.411l56.901,62.237l57.405,-73.526c-0,-0 -21.672,-16.469 -15.961,-102.613l-92.802,-0.509Z" style="fill:url(#_Linear24);fill-rule:nonzero;"/><path d="M1202.86,773.196l42.451,-1.579l-13.326,38.46l-21.845,0.029l-7.28,-36.91Z" style="fill:url(#_Linear25);fill-rule:nonzero;"/><path d="M1265.74,933.946c-16.92,44.665 -33.858,74.866 -46.369,66.547c-9.803,-6.505 -21.555,-28.262 -33.547,-58.437l24.315,-131.951l21.849,-0.029l33.752,123.87Z" style="fill:url(#_Linear26);fill-rule:nonzero;"/><g><path d="M1309.55,542.692c-0,64.48 -37.938,134.249 -85.116,134.865c-47.602,0.621 -86.506,-69.277 -86.506,-134.811c-0,-65.534 38.904,-101.021 86.506,-100.584c47.179,0.433 85.116,36.049 85.116,100.53Z" style="fill:url(#_Linear27);fill-rule:nonzero;"/><path d="M1135.36,559.287c4.783,-0.777 9.561,-1.553 14.334,-2.328c-2.193,-5.36 -11.247,-29.107 -0,-49.866c10.783,-19.904 36.138,-29.489 55.464,-28.07c21.917,1.609 35.053,11.992 46.027,4.061c6.163,-4.454 8.158,-12.592 8.863,-18.934c0.486,4.063 1.588,10.076 4.425,16.728c8.147,19.1 21.918,23.119 29.41,35.733c5.041,8.488 8.32,22.682 -0,47.678c4.153,-0.262 8.303,-0.524 12.45,-0.786c4.376,-14.03 9.623,-33.917 12.884,-58.246c4.842,-36.112 8.172,-60.961 -5.575,-73.207c-2.741,-2.441 -14.871,-12.141 -43.95,-3.436c-6.822,-7.341 -21.21,-20.814 -43.381,-27.801c-7.678,-2.42 -45.829,-14.443 -79.749,10.09c-23.119,16.721 -41.268,48.248 -35.432,74.512c3.086,13.884 11.52,20.151 18.939,46.979c3.131,11.325 4.571,20.848 5.291,26.893Z" style="fill:url(#_Linear28);fill-rule:nonzero;"/><path d="M1297.76,566.513c-0,-0 5.451,-28.264 21.99,-25.466c16.487,2.79 -7.146,49.09 -21.99,54.732l-0,-29.266Z" style="fill:url(#_Linear29);fill-rule:nonzero;"/><path d="M1148.68,566.898c-0,-0 -5.613,-28.666 -22.714,-25.819c-17.156,2.856 7.403,49.925 22.714,55.5l-0,-29.681Z" style="fill:url(#_Linear30);fill-rule:nonzero;"/></g></g></g></g></g><g><path d="M471.178,1964.12c-185.362,6.212 -340.961,-138.517 -340.961,-322.822c-0,-184.305 155.599,-330.061 340.961,-325.071c179.166,4.823 320.57,149.606 320.57,322.889c-0.001,173.284 -141.404,318.999 -320.57,325.004Z" style="fill:url(#_Linear31);fill-rule:nonzero;"/><path d="M493.494,1963.19c-185.074,6.202 -340.43,-138.419 -340.43,-322.58c-0,-184.161 155.356,-329.8 340.43,-324.812c178.89,4.822 320.076,149.496 320.076,322.646c-0,173.152 -141.186,318.751 -320.076,324.746Z" style="fill:url(#_Linear32);fill-rule:nonzero;"/><path d="M792.112,1638.52c-0,161.801 -131.61,297.102 -298.618,302.351c-172.385,5.417 -316.258,-128.976 -316.258,-300.335c-0,-171.359 143.873,-306.696 316.258,-302.408c167.008,4.152 298.618,138.591 298.618,300.392Z" style="fill:#fff;fill-rule:nonzero;"/><g><g><clipPath id="_clip33"><path d="M770.564,1638.59c-0,150.126 -122.255,275.414 -277.07,279.956c-159.426,4.677 -292.193,-119.771 -292.193,-278.09c-0,-158.319 132.767,-283.638 292.193,-280.006c154.815,3.528 277.07,128.015 277.07,278.14Z"/></clipPath><g clip-path="url(#_clip33)"><path d="M263.445,1847.1c-16.824,-46.775 46.241,-65.137 54.252,-175.453c0.544,-7.489 11.194,-158.058 34.907,-187.509c3.149,-3.911 6.659,-7.031 6.659,-7.031c11.838,-9.226 30.115,-8.62 95.148,-36.651c55.503,-23.923 52.301,-23.198 59.458,-24.647c41.576,-8.415 102.826,27.438 122.923,76.577c18.001,44.014 -3.601,82.577 28.659,159.796l0.002,0.004c39.895,111.025 59.801,166.421 41.786,202.322c-54.891,109.384 -406.101,97.389 -443.794,-7.408Z" style="fill:url(#_Linear34);fill-rule:nonzero;"/><path d="M177.236,1849.92c-0,-0 278.22,-163.019 614.876,-13.695c-0,-0 -42.443,133.863 -298.618,149.523c-269.049,16.448 -316.258,-135.828 -316.258,-135.828Z" style="fill:url(#_Linear35);fill-rule:nonzero;"/><path d="M444.71,1639.66l-10.338,75.185c-3.529,25.667 -21.637,47.416 -46.865,56.196l-84.635,29.454c-0,-0 161.553,72.301 363.035,-7.249l-91.501,-29.534c-26.081,-9.13 -43.883,-33.012 -45.021,-60.51l-2.641,-63.811l-82.034,0.269Z" style="fill:url(#_Linear36);fill-rule:nonzero;"/><path d="M569.537,1573.33c-0,63.044 -38.807,131.139 -87.072,131.592c-48.703,0.457 -88.51,-68.02 -88.51,-132.105c-0,-64.086 39.807,-98.656 88.51,-98.067c48.265,0.583 87.072,35.536 87.072,98.58Z" style="fill:url(#_Linear37);fill-rule:nonzero;"/><path d="M391.006,1614.15c8.436,-0.455 -3.743,-67.008 28.913,-85.44c21.638,-12.213 59.109,-1.038 80.139,20.642c33.083,34.105 14.583,83.203 39.624,93.559c15.873,6.565 37.036,-7.566 47.163,-17.874c31.58,-32.143 27.28,-99.984 -10.071,-138.419c-29.845,-30.711 -70.452,-32.094 -80.126,-32.133c-55.503,-0.221 -106.658,39.867 -118.412,87.47c-9.04,36.611 6.528,72.531 12.77,72.195Z" style="fill:url(#_Linear38);fill-rule:nonzero;"/></g></g></g></g><g><g><path d="M1955.13,1252.15c-3.633,0.064 -6.795,-2.927 -6.795,-6.673l-0,-113.471l-1477.61,19.444l-0,119.613c-0,3.949 -2.753,7.203 -6.792,7.274c-4.041,0.071 -6.795,-3.08 -6.795,-7.031l-0,-127.35c-0,-3.951 0.897,-6.102 4.938,-6.153l1494.63,-18.926c3.632,-0.046 5.21,1.941 5.21,5.686l-0,120.696c-0.001,3.744 -3.161,6.827 -6.793,6.891Z" style="fill:url(#_Linear39);fill-rule:nonzero;"/></g><g><path d="M1228.22,1265.02c-3.83,0.067 -6.795,-3.002 -6.795,-6.849l-0,-247.977c-0,-3.847 2.965,-6.989 6.795,-7.02c3.829,-0.031 6.792,3.063 6.792,6.908l-0,247.859c-0,3.844 -2.963,7.011 -6.792,7.079Z" style="fill:url(#_Linear40);fill-rule:nonzero;"/></g></g></g></g></g><defs><linearGradient id="_Linear1" x1="0" y1="0" x2="1" y2="0" gradientUnits="userSpaceOnUse" gradientTransform="matrix(595.862,0,0,595.862,1637.12,1585.72)"><stop offset="0" style="stop-color:#444b8c;stop-opacity:1"/><stop offset="1" style="stop-color:#26264f;stop-opacity:1"/><stop offset="1" style="stop-color:#26264f;stop-opacity:1"/></linearGradient><linearGradient id="_Linear2" x1="0" y1="0" x2="1" y2="0" gradientUnits="userSpaceOnUse" gradientTransform="matrix(594.982,0,0,594.982,1657.78,1592.07)"><stop offset="0" style="stop-color:#e38ddd;stop-opacity:1"/><stop offset="0" style="stop-color:#e38ddd;stop-opacity:1"/><stop offset="1" style="stop-color:#9571f6;stop-opacity:1"/></linearGradient><linearGradient id="_Linear4" x1="0" y1="0" x2="1" y2="0" gradientUnits="userSpaceOnUse" gradientTransform="matrix(-85.466,264.945,-264.945,-85.466,2055.64,1379.47)"><stop offset="0" style="stop-color:#ab316d;stop-opacity:1"/><stop offset="1" style="stop-color:#792d3d;stop-opacity:1"/></linearGradient><linearGradient id="_Linear5" x1="0" y1="0" x2="1" y2="0" gradientUnits="userSpaceOnUse" gradientTransform="matrix(553.881,0,0,553.881,1679.53,1821.33)"><stop offset="0" style="stop-color:#ff9085;stop-opacity:1"/><stop offset="1" style="stop-color:#fb6fbb;stop-opacity:1"/></linearGradient><linearGradient id="_Linear6" x1="0" y1="0" x2="1" y2="0" gradientUnits="userSpaceOnUse" gradientTransform="matrix(1.1148,216.258,-216.258,1.1148,1955.45,1614.08)"><stop offset="0" style="stop-color:#f36f56;stop-opacity:1"/><stop offset="0" style="stop-color:#f36f56;stop-opacity:1"/><stop offset="1" style="stop-color:#ffc444;stop-opacity:1"/></linearGradient><linearGradient id="_Linear7" x1="0" y1="0" x2="1" y2="0" gradientUnits="userSpaceOnUse" gradientTransform="matrix(-49.2867,332.147,-332.147,-49.2867,1986.66,1307.4)"><stop offset="0" style="stop-color:#f36f56;stop-opacity:1"/><stop offset="0" style="stop-color:#f36f56;stop-opacity:1"/><stop offset="1" style="stop-color:#ffc444;stop-opacity:1"/></linearGradient><linearGradient id="_Linear8" x1="0" y1="0" x2="1" y2="0" gradientUnits="userSpaceOnUse" gradientTransform="matrix(-88.5847,274.613,-274.613,-88.5847,1995.98,1358.98)"><stop offset="0" style="stop-color:#ab316d;stop-opacity:1"/><stop offset="1" style="stop-color:#792d3d;stop-opacity:1"/></linearGradient><linearGradient id="_Linear9" x1="0" y1="0" x2="1" y2="0" gradientUnits="userSpaceOnUse" gradientTransform="matrix(628.314,0,0,628.314,885.43,1611.06)"><stop offset="0" style="stop-color:#444b8c;stop-opacity:1"/><stop offset="1" style="stop-color:#26264f;stop-opacity:1"/><stop offset="1" style="stop-color:#26264f;stop-opacity:1"/></linearGradient><linearGradient id="_Linear10" x1="0" y1="0" x2="1" y2="0" gradientUnits="userSpaceOnUse" gradientTransform="matrix(627.361,0,0,627.361,907.231,1617.56)"><stop offset="0" style="stop-color:#e38ddd;stop-opacity:1"/><stop offset="0" style="stop-color:#e38ddd;stop-opacity:1"/><stop offset="1" style="stop-color:#9571f6;stop-opacity:1"/></linearGradient><linearGradient id="_Linear12" x1="0" y1="0" x2="1" y2="0" gradientUnits="userSpaceOnUse" gradientTransform="matrix(297.635,-198.424,198.424,297.635,1107.65,2026.71)"><stop offset="0" style="stop-color:#e38ddd;stop-opacity:1"/><stop offset="0" style="stop-color:#e38ddd;stop-opacity:1"/><stop offset="1" style="stop-color:#9571f6;stop-opacity:1"/></linearGradient><linearGradient id="_Linear13" x1="0" y1="0" x2="1" y2="0" gradientUnits="userSpaceOnUse" gradientTransform="matrix(-2.3663,-144.35,144.35,-2.3663,1218.76,1769.16)"><stop offset="0" style="stop-color:#aa80f9;stop-opacity:1"/><stop offset="1" style="stop-color:#6165d7;stop-opacity:1"/><stop offset="1" style="stop-color:#6165d7;stop-opacity:1"/></linearGradient><linearGradient id="_Linear14" x1="0" y1="0" x2="1" y2="0" gradientUnits="userSpaceOnUse" gradientTransform="matrix(-0.7808,-124.919,124.919,-0.7808,1219.99,1783.34)"><stop offset="0" style="stop-color:#ab316d;stop-opacity:1"/><stop offset="1" style="stop-color:#792d3d;stop-opacity:1"/></linearGradient><linearGradient id="_Linear15" x1="0" y1="0" x2="1" y2="0" gradientUnits="userSpaceOnUse" gradientTransform="matrix(20.6156,-248.18,248.18,20.6156,1209.46,1622.36)"><stop offset="0" style="stop-color:#ab316d;stop-opacity:1"/><stop offset="1" style="stop-color:#792d3d;stop-opacity:1"/></linearGradient><linearGradient id="_Linear16" x1="0" y1="0" x2="1" y2="0" gradientUnits="userSpaceOnUse" gradientTransform="matrix(20.4164,-245.78,245.78,20.4164,1136.84,1617.71)"><stop offset="0" style="stop-color:#ab316d;stop-opacity:1"/><stop offset="1" style="stop-color:#792d3d;stop-opacity:1"/></linearGradient><linearGradient id="_Linear17" x1="0" y1="0" x2="1" y2="0" gradientUnits="userSpaceOnUse" gradientTransform="matrix(20.6048,-248.049,248.049,20.6048,1292.12,1626.65)"><stop offset="0" style="stop-color:#ab316d;stop-opacity:1"/><stop offset="1" style="stop-color:#792d3d;stop-opacity:1"/></linearGradient><linearGradient id="_Linear18" x1="0" y1="0" x2="1" y2="0" gradientUnits="userSpaceOnUse" gradientTransform="matrix(55.1219,-170.958,170.958,55.1219,1203.87,1503.47)"><stop offset="0" style="stop-color:#311944;stop-opacity:1"/><stop offset="1" style="stop-color:#6b3976;stop-opacity:1"/></linearGradient><linearGradient id="_Linear19" x1="0" y1="0" x2="1" y2="0" gradientUnits="userSpaceOnUse" gradientTransform="matrix(55.5084,-172.156,172.156,55.5084,1204.02,1503.01)"><stop offset="0" style="stop-color:#311944;stop-opacity:1"/><stop offset="1" style="stop-color:#6b3976;stop-opacity:1"/></linearGradient><linearGradient id="_Linear20" x1="0" y1="0" x2="1" y2="0" gradientUnits="userSpaceOnUse" gradientTransform="matrix(727.864,0,0,727.864,831.432,610.904)"><stop offset="0" style="stop-color:#444b8c;stop-opacity:1"/><stop offset="1" style="stop-color:#26264f;stop-opacity:1"/><stop offset="1" style="stop-color:#26264f;stop-opacity:1"/></linearGradient><linearGradient id="_Linear21" x1="0" y1="0" x2="1" y2="0" gradientUnits="userSpaceOnUse" gradientTransform="matrix(726.542,0,0,726.542,857.625,611.051)"><stop offset="0" style="stop-color:#ff9085;stop-opacity:1"/><stop offset="1" style="stop-color:#fb6fbb;stop-opacity:1"/></linearGradient><linearGradient id="_Linear23" x1="0" y1="0" x2="1" y2="0" gradientUnits="userSpaceOnUse" gradientTransform="matrix(-381.5,750.954,-750.954,-381.5,1492.19,427.449)"><stop offset="0" style="stop-color:#444b8c;stop-opacity:1"/><stop offset="1" style="stop-color:#3e4177;stop-opacity:1"/><stop offset="1" style="stop-color:#3e4177;stop-opacity:1"/></linearGradient><linearGradient id="_Linear24" x1="0" y1="0" x2="1" y2="0" gradientUnits="userSpaceOnUse" gradientTransform="matrix(46.245,230.098,-230.098,46.245,1206.43,622.374)"><stop offset="0" style="stop-color:#ffc444;stop-opacity:1"/><stop offset="1" style="stop-color:#f36f56;stop-opacity:1"/><stop offset="1" style="stop-color:#f36f56;stop-opacity:1"/></linearGradient><linearGradient id="_Linear25" x1="0" y1="0" x2="1" y2="0" gradientUnits="userSpaceOnUse" gradientTransform="matrix(42.4509,0,0,42.4509,1202.86,790.861)"><stop offset="0" style="stop-color:#444b8c;stop-opacity:1"/><stop offset="1" style="stop-color:#3e4177;stop-opacity:1"/><stop offset="1" style="stop-color:#3e4177;stop-opacity:1"/></linearGradient><linearGradient id="_Linear26" x1="0" y1="0" x2="1" y2="0" gradientUnits="userSpaceOnUse" gradientTransform="matrix(79.9168,0,0,79.9168,1185.82,905.974)"><stop offset="0" style="stop-color:#444b8c;stop-opacity:1"/><stop offset="1" style="stop-color:#3e4177;stop-opacity:1"/><stop offset="1" style="stop-color:#3e4177;stop-opacity:1"/></linearGradient><linearGradient id="_Linear27" x1="0" y1="0" x2="1" y2="0" gradientUnits="userSpaceOnUse" gradientTransform="matrix(-56.3448,347.967,-347.967,-56.3448,1258.6,328.297)"><stop offset="0" style="stop-color:#f36f56;stop-opacity:1"/><stop offset="0" style="stop-color:#f36f56;stop-opacity:1"/><stop offset="1" style="stop-color:#ffc444;stop-opacity:1"/></linearGradient><linearGradient id="_Linear28" x1="0" y1="0" x2="1" y2="0" gradientUnits="userSpaceOnUse" gradientTransform="matrix(-27.5237,169.978,-169.978,-27.5237,1228.93,400.004)"><stop offset="0" style="stop-color:#444b8c;stop-opacity:1"/><stop offset="1" style="stop-color:#26264f;stop-opacity:1"/><stop offset="1" style="stop-color:#26264f;stop-opacity:1"/></linearGradient><linearGradient id="_Linear29" x1="0" y1="0" x2="1" y2="0" gradientUnits="userSpaceOnUse" gradientTransform="matrix(-55.8673,345.019,-345.019,-55.8673,1346.26,344.58)"><stop offset="0" style="stop-color:#f36f56;stop-opacity:1"/><stop offset="0" style="stop-color:#f36f56;stop-opacity:1"/><stop offset="1" style="stop-color:#ffc444;stop-opacity:1"/></linearGradient><linearGradient id="_Linear30" x1="0" y1="0" x2="1" y2="0" gradientUnits="userSpaceOnUse" gradientTransform="matrix(-56.8244,350.93,-350.93,-56.8244,1176.47,312.64)"><stop offset="0" style="stop-color:#f36f56;stop-opacity:1"/><stop offset="0" style="stop-color:#f36f56;stop-opacity:1"/><stop offset="1" style="stop-color:#ffc444;stop-opacity:1"/></linearGradient><linearGradient id="_Linear31" x1="0" y1="0" x2="1" y2="0" gradientUnits="userSpaceOnUse" gradientTransform="matrix(661.53,0,0,661.53,130.217,1640.2)"><stop offset="0" style="stop-color:#444b8c;stop-opacity:1"/><stop offset="1" style="stop-color:#26264f;stop-opacity:1"/><stop offset="1" style="stop-color:#26264f;stop-opacity:1"/></linearGradient><linearGradient id="_Linear32" x1="0" y1="0" x2="1" y2="0" gradientUnits="userSpaceOnUse" gradientTransform="matrix(660.506,0,0,660.506,153.064,1639.53)"><stop offset="0" style="stop-color:#e38ddd;stop-opacity:1"/><stop offset="0" style="stop-color:#e38ddd;stop-opacity:1"/><stop offset="1" style="stop-color:#9571f6;stop-opacity:1"/></linearGradient><linearGradient id="_Linear34" x1="0" y1="0" x2="1" y2="0" gradientUnits="userSpaceOnUse" gradientTransform="matrix(-781.339,1479.7,-1479.7,-781.339,895.21,976.913)"><stop offset="0" style="stop-color:#ab316d;stop-opacity:1"/><stop offset="1" style="stop-color:#792d3d;stop-opacity:1"/></linearGradient><linearGradient id="_Linear35" x1="0" y1="0" x2="1" y2="0" gradientUnits="userSpaceOnUse" gradientTransform="matrix(-29.6229,529.513,-529.513,-29.6229,485,1837.25)"><stop offset="0" style="stop-color:#444b8c;stop-opacity:1"/><stop offset="1" style="stop-color:#26264f;stop-opacity:1"/><stop offset="1" style="stop-color:#26264f;stop-opacity:1"/></linearGradient><linearGradient id="_Linear36" x1="0" y1="0" x2="1" y2="0" gradientUnits="userSpaceOnUse" gradientTransform="matrix(1.1394,221.07,-221.07,1.1394,483.711,1665.1)"><stop offset="0" style="stop-color:#f36f56;stop-opacity:1"/><stop offset="0" style="stop-color:#f36f56;stop-opacity:1"/><stop offset="1" style="stop-color:#ffc444;stop-opacity:1"/></linearGradient><linearGradient id="_Linear37" x1="0" y1="0" x2="1" y2="0" gradientUnits="userSpaceOnUse" gradientTransform="matrix(-51.3916,346.333,-346.333,-51.3916,516.061,1342.45)"><stop offset="0" style="stop-color:#f36f56;stop-opacity:1"/><stop offset="0" style="stop-color:#f36f56;stop-opacity:1"/><stop offset="1" style="stop-color:#ffc444;stop-opacity:1"/></linearGradient><linearGradient id="_Linear38" x1="0" y1="0" x2="1" y2="0" gradientUnits="userSpaceOnUse" gradientTransform="matrix(-298.19,564.715,-564.715,-298.19,642.969,1279.54)"><stop offset="0" style="stop-color:#ab316d;stop-opacity:1"/><stop offset="1" style="stop-color:#792d3d;stop-opacity:1"/></linearGradient><linearGradient id="_Linear39" x1="0" y1="0" x2="1" y2="0" gradientUnits="userSpaceOnUse" gradientTransform="matrix(1504.78,0,0,1504.78,457.145,1198.61)"><stop offset="0" style="stop-color:#444b8c;stop-opacity:1"/><stop offset="1" style="stop-color:#26264f;stop-opacity:1"/><stop offset="1" style="stop-color:#26264f;stop-opacity:1"/></linearGradient><linearGradient id="_Linear40" x1="0" y1="0" x2="1" y2="0" gradientUnits="userSpaceOnUse" gradientTransform="matrix(13.5872,0,0,13.5872,1221.42,1134.1)"><stop offset="0" style="stop-color:#444b8c;stop-opacity:1"/><stop offset="1" style="stop-color:#26264f;stop-opacity:1"/><stop offset="1" style="stop-color:#26264f;stop-opacity:1"/></linearGradient></defs></svg>