<?xml version="1.0" encoding="UTF-8" standalone="no"?><!DOCTYPE svg PUBLIC "-//W3C//DTD SVG 1.1//EN" "http://www.w3.org/Graphics/SVG/1.1/DTD/svg11.dtd"><svg width="100%" height="100%" viewBox="0 0 2371 2371" version="1.1" xmlns="http://www.w3.org/2000/svg" xmlns:xlink="http://www.w3.org/1999/xlink" xml:space="preserve" xmlns:serif="http://www.serif.com/" style="fill-rule:evenodd;clip-rule:evenodd;stroke-miterlimit:10;"><g id="Background"></g><rect id="Artboard1" x="0" y="0" width="2370.71" height="2370.71" style="fill:none;"/><g id="Illustration"><g><g><g><path d="M1355.26,394.756l-890.659,0c-47.972,0 -86.856,38.889 -86.856,86.856l0,1281.39c0,47.971 38.889,86.856 86.856,86.856l1016.01,-0c47.971,-0 86.855,-38.89 86.855,-86.856l0,-1156.05l-35.906,-0c-97.367,-0 -176.296,-78.929 -176.296,-176.295l0,-35.907Z" style="fill:url(#_Linear1);fill-rule:nonzero;"/><path d="M1442.11,606.958l125.341,-0l-212.201,-212.202l-0,125.342c0.004,47.971 38.889,86.86 86.86,86.86Z" style="fill:#e8eaf6;fill-rule:nonzero;"/><path d="M1232.55,613.398l-717.4,-0c-24.743,-0 -44.801,-20.058 -44.801,-44.802c-0,-24.743 20.058,-44.801 44.801,-44.801l717.4,-0c24.743,-0 44.802,20.058 44.802,44.801c-0,24.744 -20.059,44.802 -44.802,44.802Z" style="fill:#7986cb;fill-opacity:0.25;fill-rule:nonzero;"/><g><g><path d="M738.345,900.074l-230.16,-0c-20.898,-0 -37.839,-16.941 -37.839,-37.839l-0,-89.44c-0,-20.897 16.941,-37.839 37.839,-37.839l230.16,0c20.897,0 37.839,16.942 37.839,37.839l-0,89.44c-0,20.893 -16.942,37.839 -37.839,37.839Z" style="fill:none;fill-rule:nonzero;stroke:#c5cae9;stroke-width:4.8px;"/><path d="M1087.67,900.074l-230.16,-0c-20.898,-0 -37.839,-16.941 -37.839,-37.839l0,-89.44c0,-20.897 16.941,-37.839 37.839,-37.839l230.16,0c20.897,0 37.839,16.942 37.839,37.839l-0,89.44c0.004,20.893 -16.937,37.839 -37.839,37.839Z" style="fill:none;fill-rule:nonzero;stroke:#c5cae9;stroke-width:4.8px;"/><path d="M1437.01,900.074l-230.16,-0c-20.897,-0 -37.839,-16.941 -37.839,-37.839l0,-89.44c0,-20.897 16.942,-37.839 37.839,-37.839l230.16,0c20.897,0 37.839,16.942 37.839,37.839l-0,89.44c0.005,20.893 -16.937,37.839 -37.839,37.839Z" style="fill:none;fill-rule:nonzero;stroke:#c5cae9;stroke-width:4.8px;"/></g><g><path d="M738.345,1115.65l-230.16,-0c-20.898,-0 -37.839,-16.942 -37.839,-37.839l-0,-89.445c-0,-20.898 16.941,-37.839 37.839,-37.839l230.16,0c20.897,0 37.839,16.941 37.839,37.839l-0,89.445c-0,20.897 -16.942,37.839 -37.839,37.839Z" style="fill:none;fill-rule:nonzero;stroke:#c5cae9;stroke-width:4.8px;"/><path d="M1087.67,1115.65l-230.16,-0c-20.898,-0 -37.839,-16.942 -37.839,-37.839l0,-89.445c0,-20.898 16.941,-37.839 37.839,-37.839l230.16,0c20.897,0 37.839,16.941 37.839,37.839l-0,89.445c0.004,20.897 -16.937,37.839 -37.839,37.839Z" style="fill:none;fill-rule:nonzero;stroke:#c5cae9;stroke-width:4.8px;"/><path d="M1437.01,1115.65l-230.16,-0c-20.897,-0 -37.839,-16.942 -37.839,-37.839l0,-89.445c0,-20.898 16.942,-37.839 37.839,-37.839l230.16,0c20.897,0 37.839,16.941 37.839,37.839l-0,89.445c0.005,20.897 -16.937,37.839 -37.839,37.839Z" style="fill:none;fill-rule:nonzero;stroke:#c5cae9;stroke-width:4.8px;"/></g><g><path d="M738.345,1331.23l-230.16,0c-20.898,0 -37.839,-16.941 -37.839,-37.839l-0,-89.44c-0,-20.897 16.941,-37.839 37.839,-37.839l230.16,0c20.897,0 37.839,16.942 37.839,37.839l-0,89.44c-0,20.898 -16.942,37.839 -37.839,37.839Z" style="fill:none;fill-rule:nonzero;stroke:#c5cae9;stroke-width:4.8px;"/><path d="M1087.67,1331.23l-230.16,0c-20.898,0 -37.839,-16.941 -37.839,-37.839l0,-89.44c0,-20.897 16.941,-37.839 37.839,-37.839l230.16,0c20.897,0 37.839,16.942 37.839,37.839l-0,89.44c0.004,20.898 -16.937,37.839 -37.839,37.839Z" style="fill:none;fill-rule:nonzero;stroke:#c5cae9;stroke-width:4.8px;"/><path d="M1437.01,1331.23l-230.16,0c-20.897,0 -37.839,-16.941 -37.839,-37.839l0,-89.44c0,-20.897 16.942,-37.839 37.839,-37.839l230.16,0c20.897,0 37.839,16.942 37.839,37.839l-0,89.44c0.005,20.898 -16.937,37.839 -37.839,37.839Z" style="fill:none;fill-rule:nonzero;stroke:#c5cae9;stroke-width:4.8px;"/></g><g><path d="M738.345,1546.81l-230.16,-0c-20.898,-0 -37.839,-16.942 -37.839,-37.839l-0,-89.445c-0,-20.897 16.941,-37.839 37.839,-37.839l230.16,0c20.897,0 37.839,16.942 37.839,37.839l-0,89.44c-0,20.902 -16.942,37.844 -37.839,37.844Z" style="fill:none;fill-rule:nonzero;stroke:#c5cae9;stroke-width:4.8px;"/><path d="M1087.67,1546.81l-230.16,-0c-20.898,-0 -37.839,-16.942 -37.839,-37.839l0,-89.445c0,-20.897 16.941,-37.839 37.839,-37.839l230.16,0c20.897,0 37.839,16.942 37.839,37.839l-0,89.44c0.004,20.902 -16.937,37.844 -37.839,37.844Z" style="fill:none;fill-rule:nonzero;stroke:#c5cae9;stroke-width:4.8px;"/><path d="M1437.01,1546.81l-230.16,-0c-20.897,-0 -37.839,-16.942 -37.839,-37.839l0,-89.445c0,-20.897 16.942,-37.839 37.839,-37.839l230.16,0c20.897,0 37.839,16.942 37.839,37.839l-0,89.44c0.005,20.902 -16.937,37.844 -37.839,37.844Z" style="fill:none;fill-rule:nonzero;stroke:#c5cae9;stroke-width:4.8px;"/></g></g><path d="M555.379,771.639l67.286,67.291l124.09,-124.09" style="fill:none;fill-rule:nonzero;stroke:#7986cb;stroke-width:14.39px;stroke-linecap:round;stroke-linejoin:round;"/></g><g><g><g><path d="M1731.56,384.001c0.005,-0.068 0.024,-0.149 0.024,-0.216c0.288,-5.668 0.475,-9.447 0.475,-9.447c-0,0 -0.192,-3.778 -0.475,-9.446c-0.005,-0.067 -0.019,-0.149 -0.024,-0.216c2.22,-1.055 4.872,-2.403 7.457,-3.86c5.955,-3.275 11.801,-7.183 11.801,-7.183c-0,-0 -0.302,-1.895 -0.753,-4.733c-0.71,-2.786 -1.659,-6.507 -2.604,-10.224c-0.954,-3.716 -2.493,-7.25 -3.424,-9.974c-0.503,-1.347 -0.92,-2.469 -1.213,-3.256c-0.292,-0.786 -0.527,-1.208 -0.527,-1.208c-0,-0 -7.097,-0.105 -13.94,0.384c-3.016,0.191 -5.941,0.489 -8.315,0.767c-0.029,-0.062 -0.067,-0.139 -0.101,-0.206c-1.213,-2.571 -2.623,-4.493 -3.428,-5.937c-0.863,-1.414 -1.352,-2.225 -1.352,-2.225c-0,0 -0.499,-0.801 -1.377,-2.21c-0.992,-1.329 -2.407,-3.223 -4.104,-5.496c-0.039,-0.062 -0.091,-0.12 -0.135,-0.182c1.271,-2.071 2.796,-4.642 4.254,-7.337c3.208,-5.96 5.984,-12.39 5.984,-12.39c0,-0 -1.29,-1.41 -3.227,-3.53c-1.937,-2.114 -4.872,-4.589 -7.682,-7.188c-2.752,-2.67 -5.984,-4.761 -8.238,-6.54c-2.311,-1.707 -3.851,-2.844 -3.851,-2.844c0,0 -6.037,3.755 -11.542,7.869c-2.44,1.794 -4.747,3.63 -6.598,5.145c-0.062,-0.038 -0.134,-0.081 -0.192,-0.115c-2.373,-1.568 -4.622,-2.388 -6.08,-3.169c-1.491,-0.72 -2.345,-1.127 -2.345,-1.127c0,-0 -0.853,-0.408 -2.345,-1.127c-1.52,-0.647 -3.769,-1.41 -6.425,-2.402c-0.067,-0.024 -0.144,-0.053 -0.211,-0.077c-0.053,-2.422 -0.158,-5.404 -0.389,-8.464c-0.484,-6.866 -1.664,-13.685 -1.664,-13.685c0,-0 -1.86,-0.475 -4.646,-1.189c-2.767,-0.835 -6.579,-1.281 -10.363,-1.885c-1.894,-0.268 -3.788,-0.604 -5.572,-0.772c-1.788,-0.101 -3.457,-0.192 -4.891,-0.273c-2.862,-0.139 -4.771,-0.23 -4.771,-0.23c0,-0 -3.03,6.161 -5.428,12.755c-1.079,2.853 -2.024,5.668 -2.762,7.969c-0.072,0.005 -0.158,0.005 -0.225,0.01c-2.83,0.177 -5.208,0.173 -6.834,0.518c-1.635,0.249 -2.575,0.388 -2.575,0.388c0,0 -0.935,0.144 -2.575,0.393c-1.64,0.25 -3.989,0.542 -6.723,1.338c-0.067,0.015 -0.148,0.039 -0.22,0.058c-1.348,-1.985 -3.04,-4.407 -4.877,-6.824c-2.071,-2.757 -4.268,-5.476 -5.97,-7.495c-1.707,-2.042 -2.872,-3.299 -2.872,-3.299c-0,0 -1.803,0.652 -4.512,1.626c-2.686,1.026 -6.359,2.182 -9.768,3.961c-3.429,1.707 -6.977,3.208 -9.408,4.742c-2.46,1.487 -4.1,2.475 -4.1,2.475c-0,-0 0.844,6.933 2.268,13.575c0.647,3.002 1.39,5.893 2.028,8.238c-0.057,0.043 -0.124,0.091 -0.182,0.134c-2.273,1.702 -4.167,3.122 -5.491,4.114c-1.227,1.113 -1.927,1.746 -1.927,1.746c-0,-0 -0.7,0.638 -1.928,1.75c-1.17,1.17 -3.098,2.585 -4.949,4.743c-0.047,0.052 -0.105,0.115 -0.153,0.167c-2.201,-0.935 -4.925,-2.047 -7.768,-3.083c-6.435,-2.402 -13.273,-4.311 -13.273,-4.311c-0,0 -0.322,0.355 -0.82,1.031c-0.504,0.667 -1.228,1.621 -2.091,2.767c-1.645,2.35 -4.186,5.246 -6.08,8.588c-1.971,3.285 -4.057,6.507 -5.366,9.063c-1.261,2.585 -2.1,4.311 -2.1,4.311c-0,-0 4.478,5.399 9.24,10.219c2.139,2.167 4.325,4.21 6.133,5.84c-0.024,0.062 -0.062,0.139 -0.086,0.202c-0.974,2.666 -1.789,4.891 -2.36,6.444c-0.311,0.772 -0.45,1.405 -0.561,1.837c-0.11,0.431 -0.167,0.657 -0.167,0.657c-0,-0 -1.017,3.654 -2.288,9.183c-0.009,0.067 -0.024,0.153 -0.033,0.22c-2.345,0.408 -5.232,0.964 -8.166,1.63c-6.68,1.473 -13.432,3.587 -13.432,3.587c0,0 -0.393,1.89 -0.479,4.752c-0.139,2.863 -0.326,6.68 -0.513,10.497c0.187,3.817 0.369,7.634 0.513,10.502c0.086,2.867 0.479,4.756 0.479,4.756c0,0 6.752,2.115 13.432,3.587c2.934,0.662 5.816,1.218 8.166,1.631c0.009,0.067 0.024,0.153 0.033,0.22c1.271,5.529 2.288,9.183 2.288,9.183c-0,-0 0.057,0.23 0.167,0.657c0.111,0.427 0.255,1.064 0.561,1.836c0.571,1.559 1.381,3.779 2.36,6.445c0.024,0.062 0.057,0.139 0.086,0.202c-1.808,1.63 -3.994,3.673 -6.133,5.84c-4.762,4.819 -9.24,10.219 -9.24,10.219c-0,-0 0.839,1.721 2.1,4.311c1.309,2.555 3.395,5.778 5.366,9.062c1.894,3.343 4.43,6.239 6.08,8.589c0.868,1.146 1.587,2.1 2.091,2.766c0.494,0.677 0.82,1.031 0.82,1.031c-0,0 6.838,-1.908 13.273,-4.31c2.843,-1.036 5.567,-2.149 7.768,-3.084c0.048,0.053 0.106,0.115 0.153,0.168c1.851,2.158 3.779,3.573 4.949,4.743c1.228,1.112 1.928,1.75 1.928,1.75c-0,-0 0.7,0.633 1.927,1.745c1.324,0.993 3.218,2.412 5.491,4.11c0.058,0.048 0.125,0.091 0.182,0.134c-0.638,2.345 -1.381,5.236 -2.028,8.238c-1.42,6.641 -2.268,13.575 -2.268,13.575c-0,0 1.64,0.988 4.1,2.475c2.431,1.539 5.979,3.035 9.408,4.742c3.404,1.774 7.082,2.93 9.768,3.961c2.704,0.978 4.512,1.626 4.512,1.626c-0,-0 1.16,-1.252 2.872,-3.3c1.702,-2.018 3.899,-4.742 5.97,-7.494c1.837,-2.417 3.529,-4.839 4.877,-6.824c0.067,0.014 0.149,0.038 0.22,0.057c2.734,0.801 5.083,1.094 6.723,1.338c1.64,0.25 2.575,0.394 2.575,0.394c0,-0 0.935,0.143 2.575,0.393c1.631,0.345 4.004,0.34 6.834,0.518c0.071,0.004 0.153,0.004 0.225,0.009c0.734,2.297 1.678,5.117 2.762,7.97c2.398,6.593 5.428,12.755 5.428,12.755c0,0 1.909,-0.091 4.771,-0.23c1.429,-0.082 3.103,-0.173 4.891,-0.273c1.784,-0.168 3.674,-0.504 5.572,-0.772c3.784,-0.609 7.596,-1.055 10.363,-1.89c2.786,-0.714 4.646,-1.189 4.646,-1.189c0,0 1.18,-6.819 1.664,-13.685c0.231,-3.055 0.336,-6.038 0.389,-8.464c0.072,-0.024 0.144,-0.053 0.211,-0.077c2.661,-0.992 4.905,-1.755 6.425,-2.402c1.492,-0.715 2.345,-1.127 2.345,-1.127c0,0 0.854,-0.412 2.345,-1.127c1.458,-0.781 3.707,-1.597 6.08,-3.169c0.058,-0.039 0.135,-0.077 0.192,-0.116c1.851,1.521 4.158,3.352 6.598,5.146c5.505,4.114 11.542,7.869 11.542,7.869c0,-0 1.54,-1.137 3.851,-2.844c2.254,-1.774 5.486,-3.87 8.238,-6.541c2.81,-2.594 5.745,-5.068 7.682,-7.188c1.937,-2.119 3.227,-3.529 3.227,-3.529c0,0 -2.776,-6.43 -5.984,-12.391c-1.458,-2.695 -2.983,-5.265 -4.254,-7.336c0.044,-0.063 0.096,-0.12 0.135,-0.182c1.697,-2.273 3.117,-4.168 4.104,-5.496c0.873,-1.405 1.377,-2.21 1.377,-2.21c-0,-0 0.493,-0.811 1.352,-2.225c0.801,-1.448 2.215,-3.367 3.428,-5.937c0.029,-0.062 0.068,-0.139 0.101,-0.206c2.374,0.278 5.299,0.58 8.315,0.767c6.843,0.489 13.94,0.384 13.94,0.384c-0,-0 0.235,-0.422 0.527,-1.209c0.293,-0.786 0.715,-1.908 1.213,-3.255c0.931,-2.719 2.465,-6.258 3.424,-9.974c0.949,-3.717 1.894,-7.433 2.604,-10.224c0.451,-2.839 0.753,-4.733 0.753,-4.733c-0,0 -5.846,-3.908 -11.801,-7.188c-2.585,-1.419 -5.232,-2.767 -7.457,-3.821Zm-106.472,53.533c-34.852,0 -63.201,-28.349 -63.201,-63.201c-0,-34.851 28.349,-63.2 63.201,-63.2c34.851,-0 63.195,28.349 63.195,63.2c0.005,34.852 -28.344,63.201 -63.195,63.201Z" style="fill:url(#_Linear2);fill-rule:nonzero;"/></g></g><path d="M1705.58,374.338c-0,-44.451 -36.036,-80.487 -80.487,-80.487c-44.452,-0 -80.488,36.036 -80.488,80.487c0,44.452 36.036,80.488 80.488,80.488c44.451,-0.005 80.487,-36.036 80.487,-80.488Zm-135.153,0c0,-30.142 24.523,-54.665 54.666,-54.665c30.142,-0 54.665,24.523 54.665,54.665c-0,30.143 -24.523,54.665 -54.665,54.665c-30.143,0 -54.666,-24.522 -54.666,-54.665Z" style="fill:url(#_Linear3);fill-rule:nonzero;"/></g><g><path d="M1923.41,2000.87l-889.24,-0c-56.876,-0 -102.982,-46.106 -102.982,-102.977l0,-574.225c0,-33.408 27.083,-60.491 60.492,-60.491l974.22,-0c33.409,-0 60.492,27.083 60.492,60.491l-0,574.225c-0,56.871 -46.106,102.977 -102.982,102.977Z" style="fill:#2d386b;fill-rule:nonzero;"/><path d="M1872.82,2000.87l-889.24,-0c-56.871,-0 -102.977,-46.106 -102.977,-102.977l-0,-574.225c-0,-33.408 27.083,-60.491 60.491,-60.491l974.221,-0c33.408,-0 60.491,27.083 60.491,60.491l0,574.225c-0.004,56.871 -46.11,102.977 -102.986,102.977Z" style="fill:url(#_Linear4);fill-rule:nonzero;"/><rect x="939.024" y="1310.74" width="978.354" height="589.512" style="fill:url(#_Linear5);"/><g><circle cx="1064.24" cy="1398.24" r="35.451" style="fill:#7986cb;fill-opacity:0.38;"/><circle cx="1185.56" cy="1398.24" r="35.451" style="fill:#7986cb;fill-opacity:0.38;"/><circle cx="1306.88" cy="1398.24" r="35.451" style="fill:#7986cb;fill-opacity:0.38;"/><circle cx="1428.2" cy="1398.24" r="35.451" style="fill:#7986cb;"/><circle cx="1549.52" cy="1398.24" r="35.451" style="fill:#7986cb;"/><circle cx="1670.84" cy="1398.24" r="35.451" style="fill:#7986cb;"/><circle cx="1792.17" cy="1398.24" r="35.451" style="fill:#7986cb;"/><circle cx="1064.24" cy="1502.51" r="35.451" style="fill:#7986cb;"/><circle cx="1185.56" cy="1502.51" r="35.451" style="fill:#7986cb;"/><circle cx="1306.88" cy="1502.51" r="35.451" style="fill:#7986cb;"/><circle cx="1428.2" cy="1502.51" r="35.451" style="fill:#7986cb;"/><circle cx="1549.52" cy="1502.51" r="35.451" style="fill:#7986cb;"/><circle cx="1670.84" cy="1502.51" r="35.451" style="fill:#7986cb;"/><circle cx="1792.17" cy="1502.51" r="35.451" style="fill:#7986cb;"/><circle cx="1064.24" cy="1606.77" r="35.451" style="fill:#7986cb;"/><circle cx="1185.56" cy="1606.77" r="35.451" style="fill:#7986cb;"/><circle cx="1306.88" cy="1606.77" r="35.451" style="fill:#7986cb;"/><circle cx="1428.2" cy="1606.77" r="35.451" style="fill:#7986cb;"/><circle cx="1549.52" cy="1606.77" r="35.451" style="fill:#7986cb;"/><circle cx="1670.84" cy="1606.77" r="35.451" style="fill:#7986cb;"/><circle cx="1792.17" cy="1606.77" r="35.451" style="fill:#7986cb;"/><path d="M1029.29,1705.48c3.142,-19.312 21.372,-32.439 40.683,-29.297c19.312,3.142 32.439,21.372 29.297,40.683c-3.143,19.312 -21.372,32.439 -40.684,29.297c-19.311,-3.142 -32.439,-21.372 -29.296,-40.683Z" style="fill:#7986cb;"/><path d="M1150.61,1705.48c3.143,-19.311 21.372,-32.439 40.684,-29.296c19.311,3.142 32.439,21.371 29.296,40.683c-3.142,19.312 -21.371,32.439 -40.683,29.297c-19.311,-3.143 -32.439,-21.372 -29.297,-40.684Z" style="fill:#7986cb;"/><path d="M1271.94,1705.48c3.142,-19.311 21.372,-32.438 40.683,-29.296c19.312,3.142 32.439,21.372 29.297,40.683c-3.142,19.312 -21.372,32.439 -40.683,29.297c-19.312,-3.142 -32.439,-21.372 -29.297,-40.684Z" style="fill:#7986cb;"/><path d="M1403.11,1685.97c13.835,-13.835 36.299,-13.835 50.134,-0c13.835,13.835 13.835,36.299 0,50.135c-13.835,13.835 -36.299,13.835 -50.134,-0c-13.835,-13.836 -13.835,-36.3 -0,-50.135Z" style="fill:#7986cb;"/><path d="M1514.59,1705.49c3.142,-19.311 21.372,-32.439 40.683,-29.296c19.312,3.142 32.439,21.371 29.297,40.683c-3.142,19.312 -21.372,32.439 -40.684,29.297c-19.311,-3.143 -32.438,-21.372 -29.296,-40.684Z" style="fill:#7986cb;"/><path d="M1635.92,1705.49c3.142,-19.312 21.372,-32.439 40.684,-29.297c19.311,3.142 32.438,21.372 29.296,40.684c-3.142,19.311 -21.372,32.438 -40.683,29.296c-19.312,-3.142 -32.439,-21.372 -29.297,-40.683Z" style="fill:#7986cb;"/><path d="M1757.59,1703.99c3.851,-19.184 22.552,-31.633 41.736,-27.783c19.185,3.851 31.634,22.552 27.783,41.737c-3.85,19.184 -22.552,31.633 -41.736,27.783c-19.185,-3.851 -31.634,-22.552 -27.783,-41.737Z" style="fill:#7986cb;"/><circle cx="1064.24" cy="1815.3" r="35.451" style="fill:#7986cb;"/><circle cx="1185.56" cy="1815.3" r="35.451" style="fill:#7986cb;"/><circle cx="1306.88" cy="1815.3" r="35.451" style="fill:#7986cb;fill-opacity:0.38;"/><circle cx="1428.2" cy="1815.3" r="35.451" style="fill:#7986cb;fill-opacity:0.38;"/><circle cx="1549.52" cy="1815.3" r="35.451" style="fill:#7986cb;fill-opacity:0.38;"/><circle cx="1670.84" cy="1815.3" r="35.451" style="fill:#7986cb;fill-opacity:0.38;"/><circle cx="1792.17" cy="1815.3" r="35.451" style="fill:#7986cb;fill-opacity:0.38;"/></g><g><path d="M986.41,1339.18l-0,-111.306c-0,-22.355 18.121,-40.476 40.476,-40.476c22.355,0 40.476,18.121 40.476,40.476l0,35.303" style="fill:none;fill-rule:nonzero;stroke:#7986cb;stroke-width:23.98px;"/><path d="M1128.22,1339.18l0,-111.306c0,-22.355 18.121,-40.476 40.476,-40.476c22.356,0 40.477,18.121 40.477,40.476l-0,35.303" style="fill:none;fill-rule:nonzero;stroke:#7986cb;stroke-width:23.98px;"/><path d="M1270.03,1339.18l0,-111.306c0,-22.355 18.122,-40.476 40.477,-40.476c22.355,0 40.476,18.121 40.476,40.476l-0,35.303" style="fill:none;fill-rule:nonzero;stroke:#7986cb;stroke-width:23.98px;"/><path d="M1411.84,1339.18l-0,-111.306c-0,-22.355 18.121,-40.476 40.476,-40.476c22.355,0 40.476,18.121 40.476,40.476l0,35.303" style="fill:none;fill-rule:nonzero;stroke:#7986cb;stroke-width:23.98px;"/><path d="M1553.65,1339.18l-0,-111.306c-0,-22.355 18.121,-40.476 40.476,-40.476c22.355,0 40.476,18.121 40.476,40.476l0,35.303" style="fill:none;fill-rule:nonzero;stroke:#7986cb;stroke-width:23.98px;"/><path d="M1695.46,1339.18l0,-111.306c0,-22.355 18.121,-40.476 40.476,-40.476c22.356,0 40.477,18.121 40.477,40.476l-0,35.303" style="fill:none;fill-rule:nonzero;stroke:#7986cb;stroke-width:23.98px;"/><path d="M1837.27,1339.18l0,-111.306c0,-22.355 18.121,-40.476 40.477,-40.476c22.355,0 40.476,18.121 40.476,40.476l-0,35.303" style="fill:none;fill-rule:nonzero;stroke:#7986cb;stroke-width:23.98px;"/></g></g><g><g><rect x="123.601" y="1775.02" width="384.738" height="73.87" style="fill:url(#_Linear6);"/><rect x="166.412" y="1775.02" width="78.953" height="73.87" style="fill:#fff;fill-opacity:0.53;"/><rect x="450.47" y="1775.02" width="17.795" height="73.87" style="fill:#f57c00;fill-opacity:0.41;"/><rect x="421.421" y="1775.02" width="17.795" height="73.87" style="fill:#f57c00;fill-opacity:0.41;"/></g><g><rect x="165.108" y="1689.61" width="384.738" height="73.87" style="fill:url(#_Linear7);"/><rect x="207.919" y="1689.61" width="78.953" height="73.87" style="fill:#fff;fill-opacity:0.53;"/><rect x="491.977" y="1689.61" width="17.795" height="73.87" style="fill:#f57c00;fill-opacity:0.41;"/><rect x="462.928" y="1689.61" width="17.795" height="73.87" style="fill:#f57c00;fill-opacity:0.41;"/></g><g><rect x="123.601" y="1604.2" width="384.738" height="73.87" style="fill:url(#_Linear8);"/><rect x="166.412" y="1604.2" width="78.953" height="73.87" style="fill:#fff;fill-opacity:0.53;"/><rect x="450.47" y="1604.2" width="17.795" height="73.87" style="fill:#f57c00;fill-opacity:0.41;"/><rect x="421.421" y="1604.2" width="17.795" height="73.87" style="fill:#f57c00;fill-opacity:0.41;"/></g><g><circle cx="496.772" cy="1830.54" r="195.845" style="fill:url(#_Linear9);"/><path d="M338.789,1805.05c14.001,-87.22 96.179,-146.665 183.4,-132.664c87.221,14.001 146.666,96.179 132.665,183.4c-14.001,87.221 -96.18,146.666 -183.401,132.665c-87.22,-14.001 -146.665,-96.18 -132.664,-183.401Z" style="fill:#fff;fill-opacity:0.53;"/><path d="M338.789,1805.05c14.001,-87.22 96.179,-146.665 183.4,-132.664c87.221,14.001 146.666,96.179 132.665,183.4c-14.001,87.221 -96.18,146.666 -183.401,132.665c-87.22,-14.001 -146.665,-96.18 -132.664,-183.401Z" style="fill:none;stroke:#fff;stroke-width:9.59px;"/><g><text x="420.747px" y="1918.51px" style="font-family:'Montserrat-Light', 'Montserrat';font-weight:300;font-size:235.016px;fill:#fff;">$</text></g></g></g><g><circle cx="692.407" cy="1203.62" r="195.845" style="fill:url(#_Linear10);"/><path d="M644.648,1050.89c84.306,-26.376 174.166,20.655 200.542,104.961c26.376,84.305 -20.655,174.165 -104.96,200.541c-84.306,26.377 -174.166,-20.654 -200.542,-104.96c-26.376,-84.306 20.655,-174.165 104.96,-200.542Z" style="fill:#fff;fill-opacity:0.53;"/><path d="M644.648,1050.89c84.306,-26.376 174.166,20.655 200.542,104.961c26.376,84.305 -20.655,174.165 -104.96,200.541c-84.306,26.377 -174.166,-20.654 -200.542,-104.96c-26.376,-84.306 20.655,-174.165 104.96,-200.542Z" style="fill:none;stroke:#fff;stroke-width:9.59px;"/><g><text x="616.383px" y="1291.59px" style="font-family:'Montserrat-Light', 'Montserrat';font-weight:300;font-size:235.016px;fill:#fff;">$</text></g></g><g><circle cx="1012.83" cy="904.821" r="129.955" style="fill:url(#_Linear11);"/><path d="M909.079,881.793c12.684,-57.226 69.443,-93.389 126.67,-80.704c57.226,12.684 93.388,69.443 80.704,126.669c-12.684,57.227 -69.443,93.389 -126.67,80.705c-57.226,-12.685 -93.388,-69.443 -80.704,-126.67Z" style="fill:#fff;fill-opacity:0.53;"/><path d="M909.079,881.793c12.684,-57.226 69.443,-93.389 126.67,-80.704c57.226,12.684 93.388,69.443 80.704,126.669c-12.684,57.227 -69.443,93.389 -126.67,80.705c-57.226,-12.685 -93.388,-69.443 -80.704,-126.67Z" style="fill:none;stroke:#fff;stroke-width:9.59px;"/><g><text x="962.387px" y="963.197px" style="font-family:'Montserrat-Light', 'Montserrat';font-weight:300;font-size:155.947px;fill:#fff;">$</text></g></g><g><path d="M1785.72,1760.49l74.717,77.703l-19.342,18.598l-74.716,-77.702l19.341,-18.599Z" style="fill:#1a2e35;"/><path d="M2099.69,2106.12c-25.847,24.853 -67.565,21.707 -89.388,-6.742l-199.504,-260.082l33.562,-32.277l252.083,209.522c27.577,22.911 29.093,64.72 3.247,89.579Z" style="fill:url(#_Linear12);fill-rule:nonzero;"/><g opacity="0.33"><path d="M2108.95,2030.82c-1.458,10.574 -5.721,20.917 -13.048,29.851c-22.748,27.721 -64.548,29.495 -89.564,3.802l-107.461,-110.357l111.422,145.252c21.822,28.454 63.541,31.6 89.387,6.742c21.113,-20.298 23.952,-51.899 9.264,-75.29Z" style="fill:#afb42b;fill-rule:nonzero;"/></g><g><path d="M1436.38,1593.79c11.854,-105.655 107.256,-181.809 212.912,-169.955c105.655,11.854 181.809,107.256 169.955,212.911c-11.854,105.655 -107.256,181.81 -212.911,169.956c-105.656,-11.854 -181.81,-107.257 -169.956,-212.912Z" style="fill:#fff;fill-opacity:0.53;"/><path d="M1587.6,1427c47.861,1.975 95.06,21.636 130.885,58.89c73.74,76.684 71.357,198.626 -5.328,272.367c-26.886,25.855 -59.35,42.317 -93.338,49.529c50.656,2.091 102.051,-15.646 141.482,-53.562c76.685,-73.741 79.068,-195.682 5.328,-272.367c-47.885,-49.794 -116.087,-68.217 -179.029,-54.857Z" style="fill:#c5cae9;fill-opacity:0.88;fill-rule:nonzero;"/><path d="M1806.42,1443.6c-94.873,-98.656 -251.762,-101.725 -350.423,-6.852c-98.661,94.873 -101.73,251.762 -6.853,350.423c94.873,98.656 251.763,101.725 350.424,6.852c98.656,-94.878 101.725,-251.767 6.852,-350.423Zm-45.118,310.628c-76.685,73.74 -198.626,71.357 -272.367,-5.328c-73.741,-76.684 -71.357,-198.626 5.327,-272.367c76.685,-73.74 198.627,-71.357 272.368,5.328c73.74,76.685 71.357,198.626 -5.328,272.367Z" style="fill:url(#_Linear13);fill-rule:nonzero;"/><path d="M1776.83,1472.05c-79.159,-82.319 -210.068,-84.88 -292.387,-5.721c-82.319,79.159 -84.88,210.068 -5.721,292.387c79.159,82.319 210.063,84.88 292.382,5.721c82.329,-79.164 84.89,-210.068 5.726,-292.387Zm-17.555,280.078c-75.52,72.623 -195.616,70.273 -268.239,-5.246c-72.623,-75.52 -70.274,-195.616 5.246,-268.239c75.52,-72.623 195.615,-70.273 268.239,5.246c72.623,75.52 70.273,195.611 -5.246,268.239Z" style="fill:url(#_Linear14);fill-rule:nonzero;"/></g></g><g><circle cx="1948.72" cy="798.617" r="298.395" style="fill:url(#_Linear15);"/><circle cx="1948.72" cy="798.617" r="255.996" style="fill:url(#_Linear16);"/><path d="M2132.44,620.442c14.827,33.768 23.113,71.06 23.113,110.309c-0,151.715 -122.992,274.707 -274.708,274.707c-39.243,-0 -76.536,-8.286 -110.304,-23.113c46.087,44.706 108.899,72.273 178.176,72.273c141.381,0 255.996,-114.614 255.996,-255.996c-0,-69.286 -27.568,-132.093 -72.273,-178.18Z" style="fill:#c5cae9;fill-opacity:0.41;fill-rule:nonzero;"/><path d="M1963.63,589.58c0,8.238 -6.679,14.918 -14.913,14.918c-8.238,0 -14.913,-6.68 -14.913,-14.918c0,-8.238 6.68,-14.913 14.913,-14.913c8.234,-0.005 14.913,6.675 14.913,14.913Z" style="fill:#fff;fill-rule:nonzero;"/><path d="M1739.68,783.704c8.238,0 14.917,6.68 14.917,14.913c0,8.238 -6.679,14.918 -14.917,14.918c-8.239,0 -14.913,-6.68 -14.913,-14.918c-0,-8.238 6.674,-14.913 14.913,-14.913Z" style="fill:#fff;fill-rule:nonzero;"/><path d="M1933.8,1007.65c-0,-8.238 6.679,-14.913 14.913,-14.913c8.238,0 14.913,6.68 14.913,14.913c-0,8.238 -6.68,14.918 -14.913,14.918c-8.239,0 -14.913,-6.68 -14.913,-14.918Z" style="fill:#fff;fill-rule:nonzero;"/><path d="M2157.76,813.535c-8.238,0 -14.913,-6.68 -14.913,-14.918c0,-8.238 6.68,-14.913 14.913,-14.913c8.239,0 14.913,6.68 14.913,14.913c0,8.238 -6.679,14.918 -14.913,14.918Z" style="fill:#fff;fill-rule:nonzero;"/><circle cx="1948.72" cy="798.617" r="30.286" style="fill:#fff;"/><path d="M1948.72,798.617l72.091,-108.184" style="fill:none;fill-rule:nonzero;stroke:#fff;stroke-width:19.18px;stroke-linecap:round;"/><path d="M2060.4,960.978l-111.689,-162.361" style="fill:none;fill-rule:nonzero;stroke:#fff;stroke-width:9.59px;stroke-linecap:round;"/></g></g></g></g><defs><linearGradient id="_Linear1" x1="0" y1="0" x2="1" y2="0" gradientUnits="userSpaceOnUse" gradientTransform="matrix(8.90994e-14,-1455.1,1455.1,8.90994e-14,972.595,1849.86)"><stop offset="0" style="stop-color:#dadef1;stop-opacity:1"/><stop offset="1" style="stop-color:#fff;stop-opacity:1"/></linearGradient><linearGradient id="_Linear2" x1="0" y1="0" x2="1" y2="0" gradientUnits="userSpaceOnUse" gradientTransform="matrix(178.677,178.677,-178.677,178.677,1537.03,284.998)"><stop offset="0" style="stop-color:#9fa8da;stop-opacity:1"/><stop offset="1" style="stop-color:#5c6bc0;stop-opacity:1"/></linearGradient><linearGradient id="_Linear3" x1="0" y1="0" x2="1" y2="0" gradientUnits="userSpaceOnUse" gradientTransform="matrix(113.824,113.824,-113.824,113.824,1568.18,317.425)"><stop offset="0" style="stop-color:#5c6bc0;stop-opacity:1"/><stop offset="1" style="stop-color:#9fa8da;stop-opacity:1"/></linearGradient><linearGradient id="_Linear4" x1="0" y1="0" x2="1" y2="0" gradientUnits="userSpaceOnUse" gradientTransform="matrix(868.568,868.568,-868.568,868.568,993.917,1185.29)"><stop offset="0" style="stop-color:#5c6bc0;stop-opacity:1"/><stop offset="1" style="stop-color:#3949ab;stop-opacity:1"/></linearGradient><linearGradient id="_Linear5" x1="0" y1="0" x2="1" y2="0" gradientUnits="userSpaceOnUse" gradientTransform="matrix(783.933,783.932,-783.932,783.933,1036.23,1213.53)"><stop offset="0" style="stop-color:#fff;stop-opacity:1"/><stop offset="1" style="stop-color:#ccd1ec;stop-opacity:1"/></linearGradient><linearGradient id="_Linear6" x1="0" y1="0" x2="1" y2="0" gradientUnits="userSpaceOnUse" gradientTransform="matrix(384.74,0,0,384.74,123.602,1811.95)"><stop offset="0" style="stop-color:#ffd54f;stop-opacity:1"/><stop offset="1" style="stop-color:#ff9100;stop-opacity:1"/></linearGradient><linearGradient id="_Linear7" x1="0" y1="0" x2="1" y2="0" gradientUnits="userSpaceOnUse" gradientTransform="matrix(384.739,0,0,384.739,165.11,1726.55)"><stop offset="0" style="stop-color:#ffd54f;stop-opacity:1"/><stop offset="1" style="stop-color:#ff9100;stop-opacity:1"/></linearGradient><linearGradient id="_Linear8" x1="0" y1="0" x2="1" y2="0" gradientUnits="userSpaceOnUse" gradientTransform="matrix(384.74,0,0,384.74,123.602,1641.14)"><stop offset="0" style="stop-color:#ffd54f;stop-opacity:1"/><stop offset="1" style="stop-color:#ff9100;stop-opacity:1"/></linearGradient><linearGradient id="_Linear9" x1="0" y1="0" x2="1" y2="0" gradientUnits="userSpaceOnUse" gradientTransform="matrix(276.97,276.97,-276.97,276.97,358.29,1692.05)"><stop offset="0" style="stop-color:#ffd54f;stop-opacity:1"/><stop offset="1" style="stop-color:#ff9100;stop-opacity:1"/></linearGradient><linearGradient id="_Linear10" x1="0" y1="0" x2="1" y2="0" gradientUnits="userSpaceOnUse" gradientTransform="matrix(276.97,276.97,-276.97,276.97,553.921,1065.14)"><stop offset="0" style="stop-color:#ffd54f;stop-opacity:1"/><stop offset="1" style="stop-color:#ff9100;stop-opacity:1"/></linearGradient><linearGradient id="_Linear11" x1="0" y1="0" x2="1" y2="0" gradientUnits="userSpaceOnUse" gradientTransform="matrix(183.785,183.785,-183.785,183.785,920.941,812.927)"><stop offset="0" style="stop-color:#ffd54f;stop-opacity:1"/><stop offset="1" style="stop-color:#ff9100;stop-opacity:1"/></linearGradient><linearGradient id="_Linear12" x1="0" y1="0" x2="1" y2="0" gradientUnits="userSpaceOnUse" gradientTransform="matrix(85.0471,-85.0471,85.0471,85.0471,1919.07,2008.88)"><stop offset="0" style="stop-color:#9e9d24;stop-opacity:1"/><stop offset="0.99" style="stop-color:#d4e157;stop-opacity:1"/><stop offset="1" style="stop-color:#d4e157;stop-opacity:1"/></linearGradient><linearGradient id="_Linear13" x1="0" y1="0" x2="1" y2="0" gradientUnits="userSpaceOnUse" gradientTransform="matrix(350.49,350.49,-350.49,350.49,1452.54,1440.14)"><stop offset="0" style="stop-color:#9fa8da;stop-opacity:1"/><stop offset="1" style="stop-color:#5c6bc0;stop-opacity:1"/></linearGradient><linearGradient id="_Linear14" x1="0" y1="0" x2="1" y2="0" gradientUnits="userSpaceOnUse" gradientTransform="matrix(292.442,292.442,-292.442,292.442,1481.56,1469.16)"><stop offset="0" style="stop-color:#5c6bc0;stop-opacity:1"/><stop offset="1" style="stop-color:#9fa8da;stop-opacity:1"/></linearGradient><linearGradient id="_Linear15" x1="0" y1="0" x2="1" y2="0" gradientUnits="userSpaceOnUse" gradientTransform="matrix(421.994,421.994,-421.994,421.994,1737.72,587.621)"><stop offset="0" style="stop-color:#9fa8da;stop-opacity:1"/><stop offset="1" style="stop-color:#5c6bc0;stop-opacity:1"/></linearGradient><linearGradient id="_Linear16" x1="0" y1="0" x2="1" y2="0" gradientUnits="userSpaceOnUse" gradientTransform="matrix(362.033,362.032,-362.032,362.033,1767.7,617.602)"><stop offset="0" style="stop-color:#fff;stop-opacity:1"/><stop offset="1" style="stop-color:#ccd1ec;stop-opacity:1"/></linearGradient></defs></svg>