<?xml version="1.0" encoding="UTF-8" standalone="no"?><!DOCTYPE svg PUBLIC "-//W3C//DTD SVG 1.1//EN" "http://www.w3.org/Graphics/SVG/1.1/DTD/svg11.dtd"><svg width="100%" height="100%" viewBox="0 0 2371 2371" version="1.1" xmlns="http://www.w3.org/2000/svg" xmlns:xlink="http://www.w3.org/1999/xlink" xml:space="preserve" xmlns:serif="http://www.serif.com/" style="fill-rule:evenodd;clip-rule:evenodd;stroke-linecap:round;stroke-linejoin:round;stroke-miterlimit:10;"><g id="Background"></g><rect id="Artboard1" x="-0" y="0" width="2370.71" height="2370.71" style="fill:none;"/><g id="Illustration"></g><g><g><g><path d="M1913.18,1583.55l347.154,-0l18.72,459.583l-347.155,0l-18.719,-459.583Z" style="fill:#453f69;fill-rule:nonzero;"/><path d="M2240.21,1583.55l-347.154,-0l-16.454,459.583l347.15,0l16.458,-459.583Z" style="fill:#554d80;fill-rule:nonzero;"/><g><path d="M2000.88,1612.32c-0.399,6.425 -5.93,11.634 -12.355,11.634c-6.425,-0 -11.311,-5.209 -10.912,-11.634c0.399,-6.425 5.93,-11.633 12.355,-11.633c6.425,-0.005 11.311,5.203 10.912,11.633Z" style="fill:#453f69;fill-rule:nonzero;"/><path d="M2146.79,1612.32c-0.398,6.425 -5.93,11.634 -12.355,11.634c-6.425,-0 -11.31,-5.209 -10.917,-11.634c0.399,-6.425 5.931,-11.633 12.356,-11.633c6.43,-0.005 11.315,5.203 10.916,11.633Z" style="fill:#453f69;fill-rule:nonzero;"/><path d="M2135.15,1612.32l-3.367,54.292c-2.488,40.124 -37.353,72.951 -77.478,72.951c-40.124,-0 -70.916,-32.832 -68.428,-72.951l3.366,-54.292" style="fill:none;fill-rule:nonzero;stroke:#fff;stroke-width:5.05px;"/></g></g><path d="M2234.86,1583.55l-341.804,-0l-2.988,83.494l275.778,7.076c39.221,1.004 70.352,-30.02 69.484,-69.271l-0.47,-21.299Z" style="fill:#554d80;fill-opacity:0.15;fill-rule:nonzero;"/><path d="M1876.6,2043.13l59.531,0l-7.505,-252.289l-0.843,-28.279l-0.389,-13.052l19.406,0c18.241,0 32.721,-14.924 32.181,-33.164c-0.545,-18.24 -15.914,-33.164 -34.154,-33.164l-40.493,-0c18.114,-10.604 28.279,-28.128 24.605,-57.123c-2.16,-17.029 -6.97,-31.035 -12.997,-42.512l-22.888,-0l-16.454,459.583Z" style="fill:#554d80;fill-opacity:0.15;fill-rule:nonzero;"/></g><g><g><g><g><path d="M1528.77,1966.52l-508.364,0l28.34,-341.476l443.382,0l36.642,341.476Z" style="fill:#453f69;fill-rule:nonzero;"/><path d="M1472.47,1966.52l-508.363,0l35.531,-341.476l443.388,0l29.444,341.476Z" style="fill:#554d80;fill-rule:nonzero;"/><path d="M964.106,1966.52l564.659,0l-1.802,-16.776l-556.296,-46.257l-6.561,63.033Z" style="fill:#554d80;fill-opacity:0.15;fill-rule:nonzero;"/><path d="M1448.24,1685.52l-5.213,-60.479l-443.388,0l-11.477,110.284l460.078,-49.805Z" style="fill:#554d80;fill-opacity:0.15;fill-rule:nonzero;"/></g><g><g><path d="M1772.14,2043.13l-938.2,0c-21.531,0 -39.145,-17.614 -39.145,-39.145c-0,-21.531 17.614,-39.145 39.145,-39.145l938.2,-0c21.531,-0 39.145,17.614 39.145,39.145c-0,21.531 -17.614,39.145 -39.145,39.145Z" style="fill:#665c99;fill-rule:nonzero;"/><path d="M1772.14,2013.3l-938.2,-0c-16.251,-0 -30.262,-10.044 -36.162,-24.231c-1.913,4.603 -2.983,9.64 -2.983,14.919c-0,21.531 17.614,39.145 39.145,39.145l938.2,0c21.531,0 39.145,-17.614 39.145,-39.145c-0,-5.279 -1.07,-10.311 -2.983,-14.919c-5.9,14.187 -19.911,24.231 -36.162,24.231Z" style="fill:#554d80;fill-opacity:0.15;fill-rule:nonzero;"/><path d="M1547.19,2043.13l-825.564,0c-21.531,0 -39.145,-17.614 -39.145,-39.145c-0,-21.531 17.614,-39.145 39.145,-39.145l825.564,-0c21.53,-0 39.145,17.614 39.145,39.145c0.005,21.531 -17.615,39.145 -39.145,39.145Z" style="fill:#867bc4;fill-rule:nonzero;"/></g><g><path d="M1547.19,2013.3l-825.564,-0c-16.251,-0 -30.262,-10.044 -36.162,-24.231c-1.913,4.603 -2.983,9.64 -2.983,14.919c-0,21.531 17.614,39.145 39.145,39.145l825.564,0c21.53,0 39.145,-17.614 39.145,-39.145c-0,-5.279 -1.07,-10.311 -2.983,-14.919c-5.895,14.187 -19.906,24.231 -36.162,24.231Z" style="fill:#554d80;fill-opacity:0.15;fill-rule:nonzero;"/></g></g><g><path d="M2139.68,1625.34l-1839.12,-0c-37.237,-0 -67.424,-30.187 -67.424,-67.419l0,-1162.93c0,-37.237 30.187,-67.419 67.424,-67.419l1839.12,0c37.238,0 67.424,30.187 67.424,67.419l0,1162.92c-0.005,37.237 -30.191,67.424 -67.424,67.424Z" style="fill:#867bc4;fill-rule:nonzero;"/><path d="M2094.66,1518.98l-40.679,0c-8.025,0 -14.531,6.506 -14.531,14.531l-0,40.68c-0,8.024 6.506,14.53 14.531,14.53l40.679,0c8.025,0 14.531,-6.506 14.531,-14.53l-0,-40.68c-0,-8.025 -6.506,-14.531 -14.531,-14.531Zm3.271,48.644c-0,5.436 -4.406,9.837 -9.837,9.837l-27.547,0c-5.436,0 -9.837,-4.406 -9.837,-9.837l0,-27.547c0,-5.435 4.406,-9.837 9.837,-9.837l27.547,0c5.436,0 9.837,4.407 9.837,9.837l-0,27.547Z" style="fill:#c3bde3;fill-rule:nonzero;"/><path d="M2132.2,1491.59l-1824.18,-0c-19.906,-0 -36.046,-16.141 -36.046,-36.047l-0,-1051.15c-0,-19.906 16.14,-36.046 36.046,-36.046l1824.18,-0c19.911,-0 36.047,16.14 36.047,36.046l-0,1051.15c-0,19.911 -16.136,36.047 -36.047,36.047Z" style="fill:#c3bde3;fill-rule:nonzero;"/></g></g><g><path d="M2132.2,1491.59l-1824.18,-0c-19.906,-0 -36.046,-16.141 -36.046,-36.047l-0,-1051.15c-0,-19.906 16.14,-36.046 36.046,-36.046l1824.18,-0c19.911,-0 36.047,16.14 36.047,36.046l-0,1051.15c-0,19.911 -16.136,36.047 -36.047,36.047Z" style="fill:#fcf3db;fill-rule:nonzero;"/><path d="M379.082,916.254l1086.51,0c20.507,0 37.127,-16.62 37.127,-37.126l-0,-238.94c-0,-20.506 -16.626,-37.126 -37.127,-37.126l-1086.51,-0c-20.506,-0 -37.126,16.62 -37.126,37.126l-0,238.94c-0,20.506 16.62,37.126 37.126,37.126Z" style="fill:#fff;fill-rule:nonzero;"/><path d="M366.02,1173.6l740.565,-0c13.289,-0 24.065,-10.776 24.065,-24.065l-0,-143.055c-0,-13.289 -10.776,-24.064 -24.065,-24.064l-740.565,-0c-13.289,-0 -24.064,10.775 -24.064,24.064l-0,143.055c-0,13.289 10.775,24.065 24.064,24.065Z" style="fill:#fce097;fill-rule:nonzero;"/><path d="M1207.86,1173.6l271.559,-0c13.289,-0 24.065,-10.776 24.065,-24.065l-0,-143.055c-0,-13.289 -10.776,-24.064 -24.065,-24.064l-271.559,-0c-13.289,-0 -24.064,10.775 -24.064,24.064l-0,143.055c-0,13.289 10.77,24.065 24.064,24.065Z" style="fill:#fce097;fill-rule:nonzero;"/><g><g><circle cx="368.029" cy="1266.61" r="26.073" style="fill:#a89fe3;"/><path d="M859.621,1280.06l-410.511,0c-7.399,0 -13.45,-6.051 -13.45,-13.45c-0,-7.4 6.051,-13.451 13.45,-13.451l410.511,0c7.399,0 13.45,6.051 13.45,13.451c0,7.394 -6.051,13.45 -13.45,13.45Z" style="fill:#a89fe3;fill-rule:nonzero;"/></g><g><circle cx="368.029" cy="1379.37" r="26.073" style="fill:#a89fe3;"/><path d="M859.621,1392.82l-410.511,0c-7.399,0 -13.45,-6.051 -13.45,-13.45c-0,-7.399 6.051,-13.451 13.45,-13.451l410.511,0c7.399,0 13.45,6.052 13.45,13.451c0,7.394 -6.051,13.45 -13.45,13.45Z" style="fill:#a89fe3;fill-rule:nonzero;"/></g><g><circle cx="998.441" cy="1266.61" r="26.073" style="fill:#a89fe3;"/><path d="M1490.03,1280.06l-410.51,0c-7.399,0 -13.451,-6.051 -13.451,-13.45c0,-7.4 6.052,-13.451 13.451,-13.451l410.51,0c7.399,0 13.451,6.051 13.451,13.451c-0,7.394 -6.052,13.45 -13.451,13.45Z" style="fill:#a89fe3;fill-rule:nonzero;"/></g><g><circle cx="998.441" cy="1379.37" r="26.073" style="fill:#a89fe3;"/><path d="M1490.03,1392.82l-410.51,0c-7.399,0 -13.451,-6.051 -13.451,-13.45c0,-7.399 6.052,-13.451 13.451,-13.451l410.51,0c7.399,0 13.451,6.052 13.451,13.451c-0,7.394 -6.052,13.45 -13.451,13.45Z" style="fill:#a89fe3;fill-rule:nonzero;"/></g></g></g><g><path d="M2132.2,368.347l-549.765,-0l0,1123.25l549.765,-0c19.911,-0 36.047,-16.141 36.047,-36.047l-0,-1051.15c-0,-19.911 -16.136,-36.046 -36.047,-36.046Z" style="fill:#554d80;fill-rule:nonzero;"/><circle cx="1875.34" cy="812.012" r="208.955" style="fill:#fff7e1;"/><path d="M2037.97,1180.09l-325.245,0c-25.483,0 -46.332,-20.849 -46.332,-46.332c-0,-25.483 20.849,-46.333 46.332,-46.333l325.245,0c25.483,0 46.332,20.85 46.332,46.333c0,25.483 -20.849,46.332 -46.332,46.332Z" style="fill:#fff7e1;fill-rule:nonzero;"/><g><path d="M2068.3,1274.96l-385.911,0c-7.399,0 -13.45,-6.051 -13.45,-13.45c-0,-7.399 6.051,-13.451 13.45,-13.451l385.911,0c7.399,0 13.451,6.052 13.451,13.451c-0,7.399 -6.052,13.45 -13.451,13.45Z" style="fill:#867bc4;fill-rule:nonzero;"/><path d="M2068.3,1348.19l-385.911,-0c-7.399,-0 -13.45,-6.052 -13.45,-13.451c-0,-7.399 6.051,-13.45 13.45,-13.45l385.911,-0c7.399,-0 13.451,6.051 13.451,13.45c-0,7.394 -6.052,13.451 -13.451,13.451Z" style="fill:#867bc4;fill-rule:nonzero;"/><path d="M2018.2,1421.42l-285.716,0c-7.399,0 -13.451,-6.051 -13.451,-13.45c0,-7.399 6.052,-13.451 13.451,-13.451l285.716,0c7.399,0 13.45,6.052 13.45,13.451c0,7.399 -6.051,13.45 -13.45,13.45Z" style="fill:#867bc4;fill-rule:nonzero;"/></g></g><path d="M1995.2,446.34l-1723.21,-0l-38.848,57.637l0,286.352c47.281,-0.393 85.856,-42.032 85.856,-92.912c0,51.122 38.939,92.948 86.528,92.948c47.589,-0 86.527,-41.826 86.527,-92.948c0,51.122 38.938,92.948 86.527,92.948c47.589,-0 86.528,-41.826 86.528,-92.948c-0,51.122 38.938,92.948 86.527,92.948c47.589,-0 86.528,-41.826 86.528,-92.948c-0,51.122 38.938,92.948 86.527,92.948c47.589,-0 86.527,-41.826 86.527,-92.948c0,51.122 38.939,92.948 86.528,92.948c47.589,-0 86.527,-41.826 86.527,-92.948c0,51.122 38.938,92.948 86.528,92.948c47.589,-0 86.527,-41.826 86.527,-92.948c-0,51.122 38.938,92.948 86.527,92.948c47.589,-0 86.528,-41.826 86.528,-92.948c-0,51.122 38.938,92.948 86.527,92.948c47.589,-0 86.527,-41.826 86.527,-92.948c0,51.122 38.939,92.948 86.528,92.948c47.589,-0 86.527,-41.826 86.527,-92.948c0,51.122 38.939,92.948 86.528,92.948c47.589,-0 86.527,-41.826 86.527,-92.948l0,-64.067l0.045,-0l118.274,-186.491l0.424,-0.514l-173.085,-0l-0,-0.005Z" style="fill:#554d80;fill-opacity:0.15;fill-rule:nonzero;"/><g><g><path d="M2168.25,446.34l-0,-41.947c-0,-19.906 -16.141,-36.046 -36.047,-36.046l-1824.18,-0c-19.906,-0 -36.046,16.14 -36.046,36.046l-0,41.947l1896.27,-0Z" style="fill:#a89fe3;fill-rule:nonzero;"/><g><path d="M2110.01,407.341c0,9.337 -7.57,16.907 -16.907,16.907c-9.338,0 -16.908,-7.57 -16.908,-16.907c-0,-9.338 7.57,-16.908 16.908,-16.908c9.337,-0 16.907,7.57 16.907,16.908Z" style="fill:#fff;fill-rule:nonzero;"/><path d="M2031.62,407.341c-0,9.337 -7.571,16.907 -16.908,16.907c-9.337,0 -16.908,-7.57 -16.908,-16.907c0,-9.338 7.571,-16.908 16.908,-16.908c9.342,-0 16.908,7.57 16.908,16.908Z" style="fill:#fff;fill-rule:nonzero;"/><path d="M1953.24,407.341c0,9.337 -7.57,16.907 -16.907,16.907c-9.337,0 -16.908,-7.57 -16.908,-16.907c-0,-9.338 7.571,-16.908 16.908,-16.908c9.337,-0 16.907,7.57 16.907,16.908Z" style="fill:#fff;fill-rule:nonzero;"/></g></g><g><path d="M2168.25,446.34l-162.138,139.062l-1903.47,0l169.336,-139.062l1896.27,-0Z" style="fill:#fce097;fill-rule:nonzero;"/><g><path d="M275.642,585.402l-0,64.068c-0,51.122 38.938,92.947 86.527,92.947c47.589,0 86.528,-41.825 86.528,-92.947l-0,-64.068l-173.055,0Z" style="fill:#edcb74;fill-rule:nonzero;"/><path d="M448.691,585.402l0,64.068c0,51.122 38.939,92.947 86.528,92.947c47.589,0 86.527,-41.825 86.527,-92.947l0,-64.068l-173.055,0Z" style="fill:#7168a6;fill-rule:nonzero;"/><path d="M102.587,585.402l-0,64.068c-0,51.122 38.938,92.947 86.527,92.947c47.589,0 86.528,-41.825 86.528,-92.947l-0,-64.068l-173.055,0Z" style="fill:#7168a6;fill-rule:nonzero;"/><path d="M621.741,585.402l0,64.068c0,51.122 38.939,92.947 86.528,92.947c47.589,0 86.527,-41.825 86.527,-92.947l-0,-64.068l-173.055,0Z" style="fill:#edcb74;fill-rule:nonzero;"/><path d="M794.796,585.402l-0,64.068c-0,51.122 38.938,92.947 86.527,92.947c47.589,0 86.528,-41.825 86.528,-92.947l-0,-64.068l-173.055,0Z" style="fill:#7168a6;fill-rule:nonzero;"/><path d="M967.846,585.402l-0,64.068c-0,51.122 38.938,92.947 86.527,92.947c47.589,0 86.527,-41.825 86.527,-92.947l0,-64.068l-173.054,0Z" style="fill:#edcb74;fill-rule:nonzero;"/><path d="M1140.89,585.402l0,64.068c0,51.122 38.939,92.947 86.528,92.947c47.589,0 86.527,-41.825 86.527,-92.947l0,-64.068l-173.055,0Z" style="fill:#7168a6;fill-rule:nonzero;"/><path d="M1313.94,585.402l0,64.068c0,51.122 38.939,92.947 86.528,92.947c47.589,0 86.527,-41.825 86.527,-92.947l-0,-64.068l-173.055,0Z" style="fill:#edcb74;fill-rule:nonzero;"/><path d="M1487,585.402l-0,64.068c-0,51.122 38.938,92.947 86.527,92.947c47.589,0 86.528,-41.825 86.528,-92.947l-0,-64.068l-173.055,0Z" style="fill:#7168a6;fill-rule:nonzero;"/><path d="M1660.05,585.402l-0,64.068c-0,51.122 38.938,92.947 86.527,92.947c47.589,0 86.527,-41.825 86.527,-92.947l0,-64.068l-173.054,0Z" style="fill:#edcb74;fill-rule:nonzero;"/><path d="M1833.1,585.402l0,64.068c0,51.122 38.939,92.947 86.528,92.947c47.589,0 86.527,-41.825 86.527,-92.947l0,-64.068l-173.055,0Z" style="fill:#7168a6;fill-rule:nonzero;"/></g><path d="M102.587,585.402l169.391,-139.062l174.427,-0l-170.763,139.062l-173.055,0Z" style="fill:#867bc4;fill-rule:nonzero;"/><path d="M448.691,585.402l171.91,-139.062l173.049,-0l-171.909,139.062l-173.05,0Z" style="fill:#867bc4;fill-rule:nonzero;"/><path d="M794.796,585.402l171.334,-139.062l173.049,-0l-171.333,139.062l-173.05,0Z" style="fill:#867bc4;fill-rule:nonzero;"/><path d="M1140.89,585.402l172.48,-139.062l173.05,-0l-172.48,139.062l-173.05,0Z" style="fill:#867bc4;fill-rule:nonzero;"/><path d="M1487,585.402l171.334,-139.062l173.049,-0l-171.333,139.062l-173.05,0Z" style="fill:#867bc4;fill-rule:nonzero;"/><path d="M1833.94,585.402l161.26,-139.062l173.05,-0l-162.047,139.062l-172.263,0Z" style="fill:#867bc4;fill-rule:nonzero;"/></g></g></g><path d="M689.019,1625.34l-19.916,-187.525c-1.474,-13.879 -13.289,-24.342 -27.244,-24.13l-408.729,14.273l0,129.963c0,37.237 30.187,67.419 67.424,67.419l388.465,-0Z" style="fill:#554d80;fill-opacity:0.15;fill-rule:nonzero;"/><path d="M1876.54,1518.33c-0,0 -71.195,-39.715 -217.586,76.418c-9.554,-8.085 -21.687,-12.945 -34.91,-12.945c-10.857,-0 -20.951,3.31 -29.516,8.948c-111.566,-111.192 -165.847,-72.421 -165.847,-72.421c-0,0 -39.786,19.871 -44.904,90.878c-0.424,5.865 -0.338,11.149 0.01,16.131l550.401,-0c0.434,-4.951 0.424,-10.306 -0.116,-16.131c-6.562,-71.007 -57.532,-90.878 -57.532,-90.878Z" style="fill:#554d80;fill-opacity:0.15;fill-rule:nonzero;"/></g><g><g><path d="M1857.92,1553.13c0,0 -75.696,-40.362 -231.783,92.549c0,-0.005 350.546,14.954 231.783,-92.549Z" style="fill:#d1cfe6;fill-rule:nonzero;"/><path d="M1626.14,1645.68c0,-0 311.32,-15.142 231.783,-92.549c0,-0 46.792,17.377 52.813,79.472c6.021,62.094 -57.169,65.364 -119.273,65.364l-165.323,0l0,-52.287Z" style="fill:#fff;fill-rule:nonzero;"/><path d="M1626.13,1697.97l60.04,-0c7.046,-11.049 11.185,-24.136 11.185,-38.207c-0,-6.879 -1.03,-13.511 -2.852,-19.805c-38.686,4.275 -68.373,5.724 -68.373,5.724l0,52.288Z" style="fill:#d1cfe6;fill-rule:nonzero;"/><path d="M1446.8,1553.13c-0,0 59.081,-40.362 180.913,92.549c-0,-0.005 -273.613,14.954 -180.913,-92.549Z" style="fill:#d1cfe6;fill-rule:nonzero;"/><path d="M1627.71,1645.68c-0,-0 -242.997,-15.142 -180.913,-92.549c-0,-0 -36.521,17.377 -41.22,79.472c-4.699,62.094 44.622,65.364 93.099,65.364l129.039,0l0,-52.287l-0.005,-0Z" style="fill:#fff;fill-rule:nonzero;"/><path d="M1554.92,1659.76c-0,14.076 4.138,27.158 11.184,38.207l61.61,-0l-0,-52.293c-0,-0 -31.666,-1.974 -69.211,-8.136c-2.301,6.995 -3.583,14.455 -3.583,22.222Z" style="fill:#d1cfe6;fill-rule:nonzero;"/><circle cx="1626.14" cy="1659.76" r="51.127" style="fill:#fff;"/></g><g><g><rect x="1410.59" y="1742.79" width="325.936" height="300.343" style="fill:#fce097;"/><rect x="1549.15" y="1742.79" width="48.795" height="300.343" style="fill:#fff;"/></g><g><rect x="1736.52" y="1742.79" width="169.552" height="300.343" style="fill:#edcb74;"/><rect x="1805.64" y="1742.79" width="31.307" height="300.343" style="fill:#e1dff7;"/></g></g><path d="M1736.52,1820.65l169.552,-40.977l0,-36.884l-495.488,-0l-0,30.681l325.936,47.18Z" style="fill:#554d80;fill-opacity:0.05;fill-rule:nonzero;"/><path d="M1736.52,1780.27l169.552,-25.831l0,-11.648l-495.488,-0l-0,15.535l325.936,21.944Z" style="fill:#554d80;fill-opacity:0.15;fill-rule:nonzero;"/><g><g><path d="M1923.4,1683.59l-373.753,0c-16.281,0 -29.601,13.32 -29.601,29.602c0,16.281 13.32,29.601 29.601,29.601l373.753,-0c16.282,-0 29.601,-13.32 29.601,-29.601c0,-16.282 -13.319,-29.602 -29.601,-29.602Z" style="fill:#d1b05e;fill-rule:nonzero;"/><path d="M1872.15,1683.59l-31.625,0c16.282,0 29.601,13.32 29.601,29.602c-0,16.281 -13.319,29.601 -29.601,29.601l31.625,-0c16.282,-0 29.601,-13.32 29.601,-29.601c0,-16.282 -13.319,-29.602 -29.601,-29.602Z" style="fill:#fff;fill-rule:nonzero;"/></g><g><path d="M1770.45,1683.59l-373.753,0c-16.282,0 -29.601,13.32 -29.601,29.602c0,16.281 13.319,29.601 29.601,29.601l373.753,-0c16.282,-0 29.601,-13.32 29.601,-29.601c0,-16.282 -13.319,-29.602 -29.601,-29.602Z" style="fill:#edcb74;fill-rule:nonzero;"/><rect x="1537.87" y="1683.59" width="71.381" height="59.202" style="fill:#fff;"/></g></g></g><g><path d="M189.266,1448.43l449.221,0l71.235,594.704l-449.217,0l-71.239,-594.704Z" style="fill:#453f69;fill-rule:nonzero;"/><path d="M612.111,1448.43l-449.221,0l-71.235,594.704l449.217,0l71.239,-594.704Z" style="fill:#554d80;fill-rule:nonzero;"/><g><path d="M299.292,1485.66c-1.216,8.318 -8.938,15.056 -17.256,15.056c-8.317,-0 -14.071,-6.743 -12.86,-15.056c1.217,-8.317 8.939,-15.055 17.256,-15.055c8.318,-0 14.072,6.743 12.86,15.055Z" style="fill:#453f69;fill-rule:nonzero;"/><path d="M488.094,1485.66c-1.216,8.318 -8.938,15.056 -17.256,15.056c-8.312,-0 -14.071,-6.743 -12.86,-15.056c1.211,-8.312 8.939,-15.055 17.256,-15.055c8.318,-0 14.076,6.743 12.86,15.055Z" style="fill:#453f69;fill-rule:nonzero;"/><path d="M473.039,1485.66l-10.256,70.256c-7.581,51.919 -56.26,94.401 -108.185,94.401c-51.919,-0 -88.203,-42.482 -80.622,-94.401l10.256,-70.256" style="fill:none;fill-rule:nonzero;stroke:#fff;stroke-width:10.09px;"/></g></g></g></svg>